<svg width="28" height="28" viewBox="0 0 28 28" fill="none" xmlns="http://www.w3.org/2000/svg">
<g clip-path="url(#clip0_73_213)">
<path d="M5.92078 7.30405C5.92078 9.44976 7.66022 11.1893 9.80599 11.1893H10.3147C12.4604 11.1893 14.1999 9.44982 14.1999 7.30405H5.92078Z" fill="#E3AF2D"/>
<path d="M14.2 0.427491C13.7739 0.427491 13.4286 0.772897 13.4286 1.19886V6.53274H10.8317V0.771366C10.8317 0.345406 10.4864 0 10.0604 0C9.63438 0 9.28903 0.345406 9.28903 0.771366V6.53274H6.69215V1.1988C6.69215 0.772842 6.34679 0.427437 5.92078 0.427437C5.49476 0.427437 5.14941 0.772842 5.14941 1.1988V7.30405C5.14941 9.69684 6.96383 11.6731 9.28903 11.9312V15.4502H7.88772C7.46171 15.4502 7.11636 15.7956 7.11636 16.2215V25.0558C7.11636 26.6791 8.43706 27.9998 10.0603 27.9998C11.6836 27.9998 13.0043 26.6791 13.0043 25.0558V21.7246C13.0043 21.2986 12.659 20.9532 12.233 20.9532C11.8069 20.9532 11.4616 21.2986 11.4616 21.7246V25.0558C11.4616 25.8286 10.833 26.4572 10.0603 26.4572C9.28755 26.4572 8.65898 25.8286 8.65898 25.0558V16.993H11.4615V19.1296C11.4615 19.5556 11.8069 19.901 12.2329 19.901C12.6589 19.901 13.0043 19.5556 13.0043 19.1296V16.2216C13.0043 15.7956 12.6589 15.4502 12.2329 15.4502H10.8316V11.9313C13.1567 11.6731 14.9712 9.6969 14.9712 7.3041V1.19891C14.9713 0.772897 14.626 0.427491 14.2 0.427491ZM13.3244 8.1027C13.3142 8.14071 13.3036 8.17844 13.2921 8.21596C13.2872 8.23209 13.2818 8.2479 13.2765 8.26392C13.267 8.29318 13.2572 8.32238 13.2469 8.35126C13.2406 8.36876 13.2341 8.38604 13.2275 8.40348C13.2172 8.43077 13.2065 8.45795 13.1954 8.48491C13.1882 8.50219 13.1811 8.51926 13.1738 8.53637C13.1618 8.56404 13.1493 8.5915 13.1365 8.61873C13.1293 8.63416 13.1222 8.64969 13.1149 8.66494C13.0983 8.69896 13.0809 8.73254 13.0631 8.76584C13.0589 8.77377 13.055 8.78187 13.0507 8.78985C13.0287 8.83021 13.0056 8.87008 12.9819 8.9094C12.9737 8.92296 12.965 8.93625 12.9566 8.94965C12.9403 8.97573 12.9239 9.00165 12.9068 9.02719C12.8964 9.04278 12.8857 9.05804 12.875 9.07357C12.8591 9.09665 12.8429 9.11945 12.8263 9.14209C12.8149 9.15768 12.8034 9.1731 12.7917 9.18847C12.7746 9.21083 12.7572 9.23287 12.7396 9.25475C12.728 9.26924 12.7164 9.28373 12.7045 9.29801C12.6846 9.32185 12.6642 9.34515 12.6435 9.36833C12.6333 9.37982 12.6234 9.39163 12.6129 9.40289C12.5823 9.43647 12.551 9.46929 12.519 9.5015C12.51 9.51052 12.5005 9.51916 12.4914 9.52818C12.4674 9.55165 12.4432 9.57483 12.4186 9.59753C12.4052 9.60978 12.3916 9.62164 12.378 9.63368C12.3567 9.65249 12.3353 9.67125 12.3135 9.68951C12.2988 9.70193 12.2839 9.71407 12.2689 9.72615C12.2473 9.74365 12.2255 9.76077 12.2035 9.77767C12.1884 9.78926 12.1732 9.80091 12.1578 9.81212C12.1343 9.82946 12.1104 9.8463 12.0863 9.86293C12.0721 9.87288 12.0581 9.88289 12.0436 9.89257C12.0113 9.91422 11.9786 9.93522 11.9454 9.95557C11.939 9.95956 11.9327 9.96382 11.9262 9.96776C11.887 9.99161 11.8471 10.0144 11.8068 10.0365C11.7927 10.0443 11.7783 10.0515 11.764 10.0591C11.7369 10.0734 11.7095 10.0875 11.6819 10.1011C11.6654 10.1093 11.6485 10.1171 11.6317 10.125C11.6056 10.1373 11.5793 10.1492 11.5528 10.1608C11.5355 10.1683 11.5182 10.1757 11.5008 10.1828C11.4735 10.1941 11.4458 10.2049 11.4181 10.2155C11.4014 10.2218 11.3849 10.2283 11.3681 10.2344C11.336 10.2459 11.3036 10.2568 11.2711 10.2673C11.2585 10.2714 11.2461 10.2758 11.2334 10.2798C11.1884 10.2937 11.1429 10.3067 11.097 10.3185C11.0857 10.3215 11.0741 10.3239 11.0628 10.3267C11.0277 10.3354 10.9924 10.3438 10.9568 10.3512C10.9399 10.3548 10.9228 10.3579 10.9057 10.3612C10.8751 10.367 10.8444 10.3726 10.8136 10.3777C10.7952 10.3807 10.7766 10.3834 10.7582 10.386C10.7277 10.3904 10.6971 10.3942 10.6664 10.3977C10.6481 10.3997 10.6297 10.4019 10.6114 10.4036C10.5783 10.4067 10.545 10.4091 10.5116 10.4113C10.4956 10.4123 10.4796 10.4136 10.4636 10.4143C10.4142 10.4166 10.3647 10.4181 10.3147 10.4181H9.80605C9.75612 10.4181 9.70651 10.4166 9.65719 10.4143C9.64116 10.4136 9.62525 10.4123 9.60923 10.4113C9.57581 10.4092 9.54251 10.4067 9.50942 10.4036C9.49105 10.4019 9.47278 10.3997 9.4544 10.3977C9.42362 10.3942 9.39299 10.3903 9.36248 10.386C9.34394 10.3834 9.32551 10.3806 9.30719 10.3777C9.27623 10.3727 9.2455 10.367 9.21487 10.3611C9.19792 10.3579 9.18086 10.3548 9.16396 10.3512C9.12825 10.3437 9.09287 10.3353 9.05759 10.3266C9.04638 10.3238 9.03501 10.3215 9.0238 10.3186C8.9778 10.3066 8.93225 10.2936 8.88713 10.2796C8.87477 10.2758 8.86258 10.2716 8.85033 10.2676C8.81746 10.2569 8.78476 10.246 8.75238 10.2343C8.73581 10.2283 8.71935 10.2219 8.70295 10.2157C8.675 10.205 8.64727 10.1942 8.61971 10.1828C8.60248 10.1756 8.58537 10.1683 8.56825 10.1609C8.54151 10.1493 8.51493 10.1372 8.48863 10.1248C8.47206 10.1171 8.45543 10.1093 8.43902 10.1012C8.41102 10.0875 8.38335 10.0731 8.35579 10.0585C8.3419 10.0512 8.32784 10.0441 8.31412 10.0366C8.27365 10.0144 8.23356 9.99144 8.19419 9.96754C8.18861 9.96415 8.18325 9.96043 8.17767 9.95699C8.14366 9.9361 8.10997 9.9145 8.07688 9.89229C8.06283 9.88289 8.0491 9.8731 8.03532 9.86342C8.01088 9.84647 7.98665 9.8294 7.96275 9.81174C7.94766 9.80053 7.93273 9.78921 7.91785 9.77789C7.89549 9.76077 7.87345 9.74343 7.85152 9.72577C7.83681 9.71379 7.82204 9.70176 7.80755 9.68962C7.78551 9.67119 7.7638 9.65222 7.74231 9.63318C7.72902 9.62137 7.71556 9.60967 7.70249 9.59769C7.67728 9.57445 7.65257 9.55077 7.62807 9.52671C7.61942 9.51829 7.61056 9.51014 7.60209 9.50166C7.56982 9.46934 7.53843 9.43626 7.5077 9.40262C7.49774 9.39174 7.48828 9.38058 7.47855 9.36954C7.4575 9.34569 7.4365 9.32185 7.41615 9.29751C7.4045 9.28357 7.39324 9.26946 7.38192 9.25529C7.36403 9.23309 7.34626 9.21072 7.32898 9.18797C7.3175 9.17294 7.30617 9.15768 7.29496 9.14236C7.27818 9.11945 7.26171 9.09632 7.24553 9.07297C7.23503 9.05793 7.22453 9.04283 7.21435 9.02752C7.19707 9.0016 7.18039 8.9753 7.16393 8.94883C7.15573 8.9357 7.1472 8.92274 7.13927 8.90951C7.11543 8.87008 7.09235 8.83021 7.07031 8.78963C7.06615 8.78208 7.06243 8.77426 7.05833 8.76666C7.04034 8.73303 7.02284 8.69918 7.00611 8.66483C6.99878 8.64979 6.99189 8.63454 6.98483 8.61939C6.97193 8.59183 6.95924 8.5641 6.9471 8.5361C6.93982 8.51931 6.93282 8.5023 6.92582 8.48535C6.91461 8.45812 6.90384 8.43083 6.89345 8.40326C6.887 8.38604 6.88049 8.36887 6.87425 8.35153C6.86386 8.32244 6.85402 8.29312 6.8445 8.26365C6.83936 8.24784 6.834 8.23209 6.82908 8.21612C6.8176 8.17872 6.80693 8.14077 6.79676 8.10276C6.79463 8.09472 6.79211 8.08679 6.79004 8.07864C6.78982 8.07766 6.7896 8.07662 6.78932 8.07558H13.3321C13.3319 8.07667 13.3317 8.07766 13.3314 8.07864C13.329 8.08668 13.3265 8.09461 13.3244 8.1027Z" fill="#DC8C2A"/>
<path d="M17.8239 13.4003H21.9891V8.42465C21.9891 5.55247 20.6284 2.85003 18.3209 1.13974L17.8239 0.771366V13.4003Z" fill="#E3AF2D"/>
<path d="M22.0792 19.901C22.5052 19.901 22.8506 19.5556 22.8506 19.1296V16.2216C22.8506 15.7957 22.5052 15.4503 22.0792 15.4503H20.6779V14.1717H21.9892C22.4152 14.1717 22.7605 13.8263 22.7605 13.4003V8.42474C22.7605 5.32238 21.2726 2.3674 18.7803 0.520059L18.2832 0.151685C18.0491 -0.0217835 17.7372 -0.0485804 17.477 0.0825053C17.2168 0.213536 17.0527 0.480083 17.0527 0.771457V13.4004C17.0527 13.8264 17.398 14.1718 17.824 14.1718H19.1353V15.4504H17.734C17.308 15.4504 16.9626 15.7958 16.9626 16.2217V25.056C16.9626 26.6793 18.2833 28 19.9066 28C21.5299 28 22.8506 26.6793 22.8506 25.056V21.7248C22.8506 21.2988 22.5053 20.9534 22.0793 20.9534C21.6532 20.9534 21.3079 21.2988 21.3079 21.7248V25.056C21.3079 25.8288 20.6793 26.4574 19.9066 26.4574C19.1339 26.4574 18.5053 25.8288 18.5053 25.056V16.993H21.3078V19.1296C21.3078 19.5556 21.6532 19.901 22.0792 19.901ZM18.5952 2.37265C20.2519 3.92971 21.2178 6.12934 21.2178 8.42479V12.6291H18.5952V2.37265Z" fill="#DC8C2A"/>
</g>
<defs>
<clipPath id="clip0_73_213">
<rect width="28" height="28" fill="white"/>
</clipPath>
</defs>
</svg>
