<svg width="28" height="20" viewBox="0 0 28 20" fill="none" xmlns="http://www.w3.org/2000/svg">
<path d="M24.6046 14.2106C24.6991 14.2484 24.7966 14.2664 24.8925 14.2664C25.2003 14.2664 25.4915 14.082 25.6128 13.7788L26.6301 11.2371C27.4198 10.8714 28 10.1987 28 9.23629C28 8.45759 27.6096 7.6958 26.9546 7.19792C26.47 6.83037 25.8887 6.63606 25.2738 6.63606C25.0889 6.63606 24.9018 6.65373 24.7149 6.68873C23.9102 5.51076 22.9035 4.08773 21.3042 2.90342C19.3152 1.43047 16.9269 0.710071 13.9978 0.700993C11.0736 0.710016 8.6853 1.43036 6.69616 2.90326C5.09682 4.08757 4.08942 5.51141 3.28459 6.68905C3.09734 6.654 2.90998 6.63617 2.7247 6.63617C2.1105 6.63617 1.52977 6.83037 1.04415 7.19852C0.390359 7.69585 0 8.45765 0 9.23623C0 10.1987 0.580234 10.8713 1.36992 11.2371L3.97573 17.7478H1.78456C1.3563 17.7478 1.00898 18.0951 1.00898 18.5234C1.00898 18.9516 1.3563 19.299 1.78456 19.299H26.2155C26.6437 19.299 26.9911 18.9516 26.9911 18.5234C26.9911 18.0951 26.6437 17.7478 26.2155 17.7478H24.0243L24.3712 16.8811C24.5303 16.4833 24.337 16.032 23.9393 15.8728C23.5417 15.7138 23.0903 15.9069 22.931 16.3046L22.3535 17.7477H5.64648L3.16788 11.5548C5.02605 11.4871 6.27424 10.7363 6.83545 10.3125C7.27065 10.794 8.27941 11.5602 10.2917 11.5602C12.3328 11.5602 13.4974 10.8175 14.0013 10.3864C14.4757 10.7874 15.6568 11.5602 17.7084 11.5602C19.7051 11.5602 20.7162 10.8011 21.1608 10.3113C21.7217 10.7384 22.964 11.4877 24.8321 11.5548L24.1727 13.2022C24.0136 13.6001 24.2069 14.0514 24.6046 14.2106ZM20.0691 9.21141C20.0633 9.22229 20.0578 9.23323 20.0525 9.24438C20.0535 9.24236 20.0602 9.22415 20.0781 9.19467C20.0751 9.2002 20.0721 9.20583 20.0691 9.21141ZM21.4133 9.98064C21.4234 9.96412 21.4316 9.95007 21.438 9.93886L21.4389 9.9393C21.4312 9.95368 21.4227 9.96751 21.4133 9.98064ZM21.1 8.59103C21.044 8.59103 20.9876 8.59513 20.927 8.60388C20.5697 8.65819 20.2544 8.87748 20.0795 9.19227C20.03 9.26631 19.4892 10.0092 17.7084 10.0092C16.092 10.0092 15.2637 9.4347 14.9739 9.17706C14.9656 9.16853 14.9551 9.15743 14.9435 9.1454C14.8563 9.05429 14.7942 8.99069 14.7314 8.94054C14.525 8.77423 14.2653 8.68263 14.0004 8.68263C13.6499 8.68263 13.3228 8.83696 13.1002 9.10673C13.0429 9.1705 12.2509 10.0092 10.2917 10.0092C8.50702 10.0092 7.96666 9.26106 7.91924 9.18991C7.74288 8.87459 7.42667 8.65595 7.06732 8.60312C6.70737 8.55116 6.33035 8.67651 6.07316 8.93409C6.01256 8.99255 4.92909 10.0093 2.89767 10.0093C2.88416 10.0093 1.55127 9.9883 1.55127 9.23634C1.55127 8.93928 1.71281 8.63905 1.98242 8.43391C2.30311 8.19077 2.7014 8.12438 3.14453 8.24787C3.24543 8.27548 3.3495 8.28954 3.45384 8.28954C3.84054 8.28954 4.20137 8.09873 4.41777 7.78062L4.45058 7.73277C6.02268 5.42747 8.17573 2.27025 13.998 2.25231C19.8262 2.27025 21.9782 5.42741 23.5516 7.73577L23.5822 7.78029C23.7999 8.0989 24.1601 8.28916 24.5457 8.28916C24.6513 8.28916 24.7565 8.27483 24.8582 8.2465C24.9996 8.20718 25.1395 8.18722 25.274 8.18722C25.5516 8.18722 25.8018 8.27012 26.0168 8.43326C26.2874 8.63905 26.4489 8.93923 26.4489 9.23629C26.4489 9.98813 25.1159 10.0092 25.1025 10.0092C23.094 10.0092 21.9954 8.99895 21.9259 8.93283C21.708 8.71544 21.4076 8.59103 21.1 8.59103Z" fill="#DC8C2A"/>
<path d="M13.9999 5.50179C13.5717 5.50179 13.2244 5.15447 13.2244 4.72621V3.82173C13.2244 3.39348 13.5717 3.04616 13.9999 3.04616C14.4282 3.04616 14.7755 3.39348 14.7755 3.82173V4.72621C14.7755 5.15452 14.4282 5.50179 13.9999 5.50179Z" fill="#DC8C2A"/>
<path d="M17.5238 5.36934C17.3252 5.36934 17.1268 5.29354 16.9754 5.14216L16.3358 4.50259C16.0329 4.19973 16.0329 3.70864 16.3358 3.40567C16.6388 3.10287 17.1297 3.10287 17.4327 3.40567L18.0723 4.04524C18.3751 4.3481 18.3751 4.8392 18.0723 5.14216C17.9208 5.29354 17.7223 5.36934 17.5238 5.36934Z" fill="#DC8C2A"/>
<path d="M10.4761 5.36934C10.2775 5.36934 10.0792 5.29354 9.92771 5.14216C9.62485 4.8393 9.62485 4.34821 9.92771 4.04524L10.5673 3.40567C10.8702 3.10287 11.3612 3.10287 11.6642 3.40567C11.9671 3.70853 11.9671 4.19962 11.6642 4.50259L11.0246 5.14216C10.873 5.29354 10.6746 5.36934 10.4761 5.36934Z" fill="#DC8C2A"/>
</svg>
