<svg width="28" height="28" viewBox="0 0 28 28" fill="none" xmlns="http://www.w3.org/2000/svg">
<path d="M22.2415 8.19571V3.14271L23.3732 1.36035C23.5465 1.08757 23.5574 0.742271 23.4017 0.459045C23.2461 0.175874 22.9486 0 22.6256 0H10.8751C10.386 0 9.98945 0.396592 9.98945 0.885661V2.67076C7.45939 1.14357 4.11581 1.46939 1.9345 3.65065C-0.224718 5.80992 -0.620982 9.13491 0.970965 11.7363C1.24117 12.1779 1.56531 12.589 1.93445 12.9581C2.10742 13.1311 2.33405 13.2175 2.56067 13.2175C2.78729 13.2175 3.01403 13.131 3.187 12.958C3.53285 12.6121 3.53274 12.0513 3.18689 11.7055C2.91641 11.435 2.67923 11.1343 2.48181 10.8117C1.31867 8.91107 1.60873 6.48132 3.18689 4.9031C5.06234 3.02754 8.11395 3.02776 9.98928 4.9031L9.98939 4.90321V5.66549C9.98939 6.15456 10.3859 6.55115 10.8751 6.55115C11.3642 6.55115 11.7607 6.15456 11.7607 5.66549V1.77127H21.014L20.6985 2.26805C20.549 2.50369 20.47 2.77576 20.47 3.05467V8.36316C20.47 8.86968 20.7374 9.34835 21.1646 9.61069C23.8499 11.2757 25.5138 14.0849 25.6939 17.2057H24.0639L22.5335 15.6752C22.1877 15.3295 21.6268 15.3295 21.2809 15.6752C20.9351 16.0211 20.9351 16.5819 21.2809 16.9278L22.5589 18.2058L22.2236 18.5411L21.2212 19.5435L19.8574 18.1799L19.9718 18.0656C20.3177 17.7197 20.3177 17.1589 19.9718 16.813C19.626 16.4673 19.0652 16.4673 18.7193 16.813L18.3266 17.2057H6.53633C6.69689 14.3972 8.05018 11.8439 10.305 10.1337C10.6947 9.83808 10.771 9.28262 10.4755 8.89286C10.1798 8.50311 9.62424 8.42682 9.2346 8.7224C6.38386 10.8845 4.74887 14.1827 4.74887 17.7714C4.74942 21.8052 6.85297 25.4758 10.288 27.5272C10.2936 27.5306 10.2992 27.5336 10.3048 27.5369C10.4092 27.5989 10.5144 27.66 10.6211 27.719C10.7353 27.7822 10.8508 27.8438 10.9676 27.9034C11.0923 27.967 11.2301 28.0001 11.37 28.0001H20.8616C20.8966 28.0001 20.9314 27.998 20.966 27.9939C21.0696 27.9816 21.1705 27.951 21.264 27.9034C21.2842 27.8931 21.3037 27.8819 21.3238 27.8716C21.42 27.8218 21.5157 27.7716 21.61 27.7193C21.7216 27.6576 21.8316 27.594 21.9405 27.5291C21.9414 27.5285 21.9424 27.528 21.9433 27.5275C25.3787 25.476 27.4823 21.8054 27.4823 17.7714C27.4823 13.8668 25.5276 10.3011 22.2415 8.19571ZM21.6389 25.6136C21.6343 25.6168 21.6297 25.62 21.6251 25.6232C21.5548 25.6726 21.4836 25.721 21.4118 25.7686C21.3916 25.782 21.3712 25.7951 21.3509 25.8083C21.2905 25.8477 21.2298 25.8868 21.1683 25.9249C21.1314 25.9478 21.094 25.97 21.0567 25.9923C21.0084 26.0215 20.9603 26.0508 20.9114 26.079C20.8312 26.1253 20.75 26.1707 20.6681 26.215C20.66 26.2194 20.652 26.2241 20.6438 26.2285H11.5877C11.5794 26.224 11.5712 26.2192 11.5629 26.2147C11.4813 26.1705 11.4004 26.1254 11.3203 26.0791C11.2707 26.0504 11.2219 26.0206 11.173 25.9912C11.1366 25.9692 11.0998 25.9475 11.0636 25.9251C11.0017 25.8867 10.9406 25.8473 10.8797 25.8077C10.8598 25.7948 10.8398 25.7819 10.82 25.7689C10.7477 25.7209 10.676 25.6723 10.6053 25.6225C10.6013 25.6197 10.5973 25.6169 10.5933 25.6141C8.39176 24.0621 6.93538 21.6543 6.59676 18.9768H18.1494L20.5948 21.4222C20.6158 21.4432 20.6377 21.4629 20.6605 21.4815C20.6774 21.4954 20.6951 21.5078 20.7129 21.5203C20.7188 21.5244 20.7243 21.5291 20.7303 21.5331C20.7519 21.5476 20.7742 21.5606 20.7967 21.5728C20.7994 21.5744 20.8019 21.576 20.8046 21.5774C20.8275 21.5896 20.851 21.6005 20.8747 21.6106C20.8775 21.6118 20.8801 21.6133 20.8829 21.6143C20.9056 21.6236 20.9287 21.6316 20.9519 21.639C20.9562 21.6404 20.9603 21.6422 20.9646 21.6435C20.9863 21.65 21.0083 21.6552 21.0304 21.66C21.0366 21.6614 21.0427 21.6633 21.0489 21.6646C21.0701 21.6687 21.0916 21.6716 21.1129 21.6742C21.1202 21.675 21.1274 21.6766 21.1347 21.6773C21.1634 21.6802 21.1922 21.6816 21.2211 21.6816C21.25 21.6816 21.2789 21.6801 21.3076 21.6773C21.3149 21.6766 21.322 21.6751 21.3293 21.6742C21.3507 21.6716 21.3722 21.6687 21.3934 21.6646C21.3997 21.6633 21.4057 21.6614 21.4119 21.66C21.434 21.6552 21.4559 21.65 21.4777 21.6435C21.482 21.6422 21.4861 21.6404 21.4904 21.639C21.5137 21.6316 21.5367 21.6236 21.5595 21.6143C21.5621 21.6132 21.5646 21.6119 21.5673 21.6107C21.5911 21.6006 21.6148 21.5897 21.6378 21.5774C21.6401 21.5762 21.6423 21.5747 21.6446 21.5734C21.6675 21.561 21.6901 21.5477 21.712 21.5331C21.717 21.5297 21.7217 21.5258 21.7267 21.5222C21.7454 21.5092 21.764 21.4961 21.7819 21.4814C21.798 21.4682 21.8132 21.4538 21.8284 21.4394C21.8347 21.4335 21.8413 21.4283 21.8474 21.4221L24.2927 18.9768H25.6343C25.2961 21.6539 23.8401 24.0615 21.6389 25.6136Z" fill="#DC8C2A"/>
<path d="M16.3855 20.0472H12.3985C11.9094 20.0472 11.5128 20.4438 11.5128 20.9329V24.5962C11.5128 25.0852 11.9093 25.4818 12.3985 25.4818H16.3855C16.8746 25.4818 17.2711 25.0852 17.2711 24.5962V20.9329C17.2711 20.4438 16.8746 20.0472 16.3855 20.0472ZM15.4998 23.7106H13.2841V21.8186H15.4998V23.7106Z" fill="#DC8C2A"/>
</svg>
