<svg width="28" height="28" viewBox="0 0 28 28" fill="none" xmlns="http://www.w3.org/2000/svg">
<g clip-path="url(#clip0_73_183)">
<path d="M14.8028 6.4074C14.592 6.4074 14.3811 6.3269 14.2203 6.16612C13.8986 5.8444 13.8986 5.32279 14.2203 5.00101C16.8738 2.34757 21.0016 2.15764 23.422 4.578C23.7437 4.89972 23.7437 5.42133 23.422 5.74312C23.1003 6.0649 22.5787 6.06484 22.2569 5.74312C20.4791 3.96522 17.3965 4.15494 15.3854 6.16612C15.2245 6.32696 15.0136 6.4074 14.8028 6.4074Z" fill="#DC8C2A"/>
<path d="M8.26202 22.6744C8.22473 22.637 8.18623 22.6014 8.14729 22.5668L12.2189 18.4953C11.6097 18.2335 11.0595 17.8752 10.5923 17.408C10.1251 16.9408 9.7667 16.3906 9.50491 15.7813L5.43342 19.8529C5.39875 19.8139 5.36315 19.7755 5.32585 19.7382C4.29597 18.7083 2.62626 18.7083 1.59638 19.7382C0.566506 20.7681 0.566506 22.4378 1.59638 23.4677C2.19264 24.064 3.00349 24.3142 3.78044 24.22C3.68621 24.9969 3.93646 25.8077 4.53277 26.4041C5.56265 27.4339 7.23237 27.4339 8.26224 26.4041C9.29184 25.374 9.29184 23.7042 8.26202 22.6744Z" fill="#E3AF2D"/>
<path d="M25.4609 2.53903C21.9163 -1.00548 15.9592 -0.815609 12.1814 2.96204C10.3398 4.8037 8.91144 7.58641 8.36063 10.4057C7.97951 12.3562 8.0488 14.1175 8.5423 15.5785L5.3918 18.729C4.82573 18.3469 4.15909 18.1416 3.46101 18.1416C2.53652 18.1416 1.66748 18.5016 1.01369 19.1553C0.360008 19.8091 0 20.6782 0 21.6026C0 22.5271 0.360008 23.3961 1.01363 24.0499C1.54995 24.5862 2.2318 24.9248 2.9703 25.0287C3.07344 25.7627 3.41119 26.4474 3.94997 26.9863C4.6037 27.64 5.47285 27.9999 6.39734 27.9999C7.32178 27.9999 8.19088 27.6399 8.84461 26.9863C9.49829 26.3326 9.85835 25.4635 9.85835 24.539C9.85835 23.8409 9.65306 23.1743 9.27095 22.6081L12.7864 19.0928C12.7897 19.0897 12.7928 19.0863 12.796 19.0832L12.8014 19.0777C12.803 19.0762 12.8042 19.0743 12.8058 19.0728C12.8256 19.0527 12.8442 19.0315 12.862 19.0093C12.8665 19.0036 12.871 18.9977 12.8755 18.9919C12.8897 18.973 12.9032 18.9532 12.9159 18.9328C12.9206 18.9253 12.9255 18.918 12.9299 18.9104C12.9415 18.8904 12.9521 18.8697 12.9621 18.8484C12.9657 18.8408 12.9699 18.8334 12.9732 18.8257C12.9738 18.8242 12.9747 18.8228 12.9753 18.8213C12.9869 18.7944 12.9968 18.7672 13.0053 18.7399C13.0074 18.7331 13.0087 18.7261 13.0106 18.7193C13.0172 18.6963 13.0229 18.6733 13.0274 18.6502C13.0295 18.6396 13.0308 18.629 13.0323 18.6183C13.0353 18.5985 13.0377 18.5787 13.0393 18.5588C13.0402 18.5469 13.0408 18.5351 13.0412 18.5232C13.0419 18.504 13.0417 18.4849 13.0409 18.4658C13.0405 18.4538 13.0403 18.4417 13.0393 18.4297C13.0374 18.4067 13.0343 18.384 13.0305 18.3614C13.0294 18.3542 13.0291 18.3471 13.0277 18.3399C13.0256 18.3288 13.022 18.3183 13.0193 18.3074C13.0154 18.2908 13.0115 18.2742 13.0066 18.2579C13.0019 18.2422 12.9963 18.227 12.9906 18.2116C12.9861 18.1992 12.9813 18.1869 12.9761 18.1748C12.9695 18.159 12.9626 18.1437 12.955 18.1284C12.9495 18.1174 12.9434 18.1066 12.9374 18.0958C12.929 18.0806 12.9209 18.0653 12.9114 18.0507C12.9069 18.0436 12.9015 18.037 12.8968 18.0301C12.8773 18.0016 12.856 17.9745 12.8331 17.9487C12.8243 17.9388 12.8155 17.9287 12.8062 17.9191C12.7945 17.9072 12.7822 17.8959 12.7697 17.8846C12.7601 17.8759 12.7503 17.8673 12.7402 17.8591C12.7267 17.848 12.713 17.8373 12.6987 17.8271C12.6892 17.8204 12.6794 17.814 12.6696 17.8076C12.6536 17.7972 12.6378 17.7867 12.6209 17.7773C12.6159 17.7745 12.6105 17.7721 12.6054 17.7694C12.5852 17.7586 12.5652 17.7475 12.544 17.7384C12.0794 17.5387 11.6685 17.2786 11.3201 16.9637C11.2704 16.9187 11.2219 16.8726 11.1747 16.8253C11.1685 16.8191 11.1626 16.8126 11.1566 16.8063C11.1178 16.767 11.0796 16.7271 11.0423 16.6861C11.027 16.6692 11.0124 16.6516 10.9973 16.6344C10.9699 16.6031 10.9424 16.5718 10.9158 16.5395C10.8988 16.5189 10.8826 16.4977 10.866 16.4769C10.8426 16.4473 10.8192 16.4177 10.7966 16.3874C10.7787 16.3635 10.7614 16.3391 10.744 16.3149C10.7241 16.2871 10.7043 16.2592 10.685 16.2308C10.6663 16.2031 10.6479 16.1751 10.6298 16.147C10.6135 16.1218 10.5975 16.0964 10.5815 16.0709C10.5617 16.0388 10.5422 16.0063 10.5231 15.9736C10.5109 15.9526 10.4989 15.9313 10.487 15.9101C10.4657 15.8721 10.4445 15.8339 10.4241 15.7951C10.417 15.7814 10.41 15.7675 10.403 15.7538C8.78653 12.5949 10.4365 7.0373 13.3465 4.12732C16.4818 0.991868 21.3937 0.802102 24.2958 3.70431C27.1979 6.60641 27.0081 11.5182 23.8727 14.6536C22.3487 16.1777 20.0189 17.4085 17.6406 17.946C17.1968 18.0464 16.9183 18.4874 17.0187 18.9312C17.1052 19.3138 17.445 19.5736 17.8215 19.5735C17.8817 19.5735 17.9427 19.5669 18.0039 19.5531C20.6732 18.9497 23.3027 17.5536 25.0378 15.8186C28.8156 12.0407 29.0054 6.08366 25.4609 2.53903ZM7.56476 21.9842C7.40436 22.1446 7.31719 22.364 7.3238 22.5908C7.33042 22.8175 7.43023 23.0315 7.5997 23.1823C7.62683 23.2063 7.65357 23.2309 7.67955 23.2569C8.02211 23.5995 8.21067 24.0548 8.21067 24.5391C8.21067 25.0234 8.02211 25.4789 7.67966 25.8212C7.33709 26.1638 6.88177 26.3523 6.39745 26.3523C5.91314 26.3523 5.4577 26.1638 5.11525 25.8213C4.78084 25.4869 4.59517 25.0449 4.58577 24.5795L5.81448 23.3507C6.13621 23.029 6.13621 22.5074 5.81448 22.1856C5.49276 21.864 4.97115 21.864 4.64937 22.1856L3.42163 23.4134C2.95187 23.4036 2.51174 23.2177 2.1788 22.8848C1.83624 22.5424 1.64768 22.087 1.64768 21.6027C1.64768 21.1184 1.83624 20.6631 2.1788 20.3206C2.52126 19.9781 2.9767 19.7895 3.46101 19.7895C3.94532 19.7895 4.40065 19.9782 4.74343 20.3209C4.76924 20.3467 4.79358 20.3733 4.81742 20.4001C4.96819 20.5698 5.18213 20.6697 5.40903 20.6764C5.63511 20.6836 5.85539 20.5959 6.01584 20.4355L9.30951 17.1417C9.40888 17.2881 9.5148 17.429 9.62626 17.5652C9.63637 17.5776 9.64655 17.59 9.65672 17.6023C9.70102 17.6555 9.74635 17.7079 9.79256 17.7594C9.80623 17.7748 9.81969 17.7903 9.83352 17.8055C9.88969 17.867 9.94695 17.9274 10.0058 17.9864C10.0072 17.9877 10.0084 17.9892 10.0097 17.9905C10.0747 18.0555 10.1415 18.119 10.2098 18.1809C10.2456 18.2134 10.283 18.2443 10.3197 18.2759C10.3526 18.3042 10.3848 18.3333 10.4185 18.3609C10.47 18.4034 10.5234 18.4441 10.5766 18.4849C10.5964 18.5001 10.6156 18.516 10.6357 18.531C10.6982 18.5777 10.7623 18.6225 10.8269 18.6668C10.8379 18.6743 10.8484 18.6824 10.8594 18.6899L7.56476 21.9842Z" fill="#DC8C2A"/>
</g>
<defs>
<clipPath id="clip0_73_183">
<rect width="28" height="28" fill="white"/>
</clipPath>
</defs>
</svg>
