<svg width="1440" height="118" viewBox="0 0 1440 118" fill="none" xmlns="http://www.w3.org/2000/svg">
<path d="M0 20.6191C3.12645 19.7664 5.49447 16.8565 8.46233 15.4929C19.3451 10.4927 31.8456 9.66043 43.6136 9.2275C105.261 6.95954 166.283 13.3199 227.181 22.4092C315.379 35.5731 403.037 45.9499 492.28 48.4472C571.898 50.675 653.271 55.3235 732.806 49.6677C807.774 44.3366 879.771 22.7524 953.64 10.6921C1014.65 0.731076 1078.35 -2.31396 1140.06 1.74158C1165.27 3.39868 1190.74 5.50734 1215.32 11.6686C1242.42 18.4614 1267.91 29.5277 1293.68 40.0662C1329.96 54.9013 1366.17 70.2215 1402.96 83.7611C1442.38 98.2703 1482.2 107.505 1523.22 115.82" stroke="#DC8C2A" stroke-width="3" stroke-linecap="round"/>
</svg>
