<svg width="19" height="19" viewBox="0 0 19 19" fill="none" xmlns="http://www.w3.org/2000/svg">
<path d="M14.7931 17.069H7.96551C7.66371 17.069 7.37427 16.9491 7.16087 16.7357C6.94746 16.5223 6.82758 16.2328 6.82758 15.931V14.2241H7.96551V15.931H14.7931V2.27587H7.96551V3.98277H6.82758V2.27587C6.82758 1.97407 6.94746 1.68464 7.16087 1.47123C7.37427 1.25783 7.66371 1.13794 7.96551 1.13794H14.7931C15.0949 1.13794 15.3843 1.25783 15.5977 1.47123C15.8111 1.68464 15.931 1.97407 15.931 2.27587V15.931C15.931 16.2328 15.8111 16.5223 15.5977 16.7357C15.3843 16.9491 15.0949 17.069 14.7931 17.069Z" fill="#F2F2F2" stroke="#F2F2F2" stroke-width="0.5"/>
<path d="M8.30122 11.715L10.3381 9.67243H2.27588V8.53449H10.3381L8.30122 6.49191L9.10347 5.68967L12.5173 9.10346L9.10347 12.5173L8.30122 11.715Z" fill="#F2F2F2" stroke="#F2F2F2" stroke-width="0.5"/>
</svg>
