<svg width="53" height="53" viewBox="0 0 53 53" fill="none" xmlns="http://www.w3.org/2000/svg">
<g clip-path="url(#clip0_46_14)" filter="url(#filter0_d_46_14)">
<path d="M26.1326 6.94503L28.7354 0L32.5847 5.18827L38.274 3.00568L39.1188 9.88119L34.5959 14.404L26.1326 6.94503Z" fill="#9AC676"/>
<path d="M42.0549 22.8674L48.9999 20.2652L43.8117 16.4152L45.9942 10.7266L39.1187 9.8812L34.5959 14.404L42.0549 22.8674Z" fill="#85B932"/>
<path d="M34.7201 14.2798C34.7201 14.2798 34.8617 14.4213 33.6059 13.1662C32.0614 11.6218 30.0893 9.64897 28.9633 8.52292C26.921 6.47946 18.7035 3.55569 11.6008 10.6583C4.49805 17.7623 3.74694 29.8832 4.05676 34.1726C4.38204 38.6756 6.47085 41.0431 7.21387 41.7867L34.7201 14.2798Z" fill="#E85554"/>
<path d="M34.7202 14.2798C34.7202 14.2798 34.5786 14.1383 35.8344 15.3947C37.3782 16.9379 39.3503 18.9106 40.4771 20.0367C42.5194 22.079 45.4443 30.2965 38.3411 37.3992C31.2384 44.5019 19.1157 45.2529 14.8275 44.9426C10.3245 44.6173 7.95702 42.5291 7.21399 41.7867L34.7202 14.2798Z" fill="#CD2708"/>
<g opacity="0.75">
<path d="M18.5562 15.9187C17.5177 16.9566 16.2079 17.3315 15.6312 16.7542C15.0545 16.1781 15.4288 14.8683 16.4673 13.8304C17.5052 12.7913 18.815 12.4176 19.3917 12.9949C19.9684 13.5709 19.5941 14.8808 18.5562 15.9187Z" fill="#E8E0E0" fill-opacity="0.34"/>
<path d="M15.2135 26.3647C14.1751 27.4026 12.8658 27.7776 12.2892 27.2002C11.7124 26.6229 12.0862 25.3131 13.1247 24.2753C14.1632 23.2374 15.4724 22.8625 16.0491 23.4397C16.6263 24.017 16.252 25.3268 15.2135 26.3647Z" fill="#E8E0E0" fill-opacity="0.34"/>
<path d="M26.9122 24.2753C25.8737 25.3132 24.5646 25.6881 23.9879 25.1108C23.4106 24.5335 23.7849 23.2249 24.8234 22.1858C25.8619 21.1479 27.1712 20.7729 27.7484 21.3502C28.3251 21.9276 27.9508 23.2374 26.9122 24.2753Z" fill="#E8E0E0" fill-opacity="0.34"/>
<path d="M34.4333 31.7963C33.3954 32.8342 32.0862 33.2091 31.5089 32.6319C30.9317 32.0546 31.3059 30.746 32.3439 29.7069C33.3823 28.669 34.6915 28.294 35.2688 28.8726C35.8461 29.4486 35.4718 30.7584 34.4333 31.7963Z" fill="#E8E0E0" fill-opacity="0.34"/>
<path d="M24.4056 35.9752C23.3671 37.0131 22.0579 37.3868 21.4806 36.8108C20.9039 36.2335 21.2783 34.9237 22.3162 33.8858C23.3547 32.8479 24.6638 32.473 25.2411 33.0503C25.8184 33.6276 25.4442 34.9373 24.4056 35.9752Z" fill="#E8E0E0" fill-opacity="0.34"/>
<path d="M13.9595 37.2279C12.9216 38.2658 11.6124 38.6408 11.0352 38.0635C10.459 37.4874 10.8327 36.1776 11.8713 35.1385C12.9092 34.1006 14.219 33.7269 14.7957 34.303C15.3724 34.8803 14.9988 36.19 13.9595 37.2279Z" fill="#E8E0E0" fill-opacity="0.34"/>
</g>
</g>
<defs>
<filter id="filter0_d_46_14" x="0" y="0" width="53" height="53" filterUnits="userSpaceOnUse" color-interpolation-filters="sRGB">
<feFlood flood-opacity="0" result="BackgroundImageFix"/>
<feColorMatrix in="SourceAlpha" type="matrix" values="0 0 0 0 0 0 0 0 0 0 0 0 0 0 0 0 0 0 127 0" result="hardAlpha"/>
<feOffset dy="4"/>
<feGaussianBlur stdDeviation="2"/>
<feComposite in2="hardAlpha" operator="out"/>
<feColorMatrix type="matrix" values="0 0 0 0 0 0 0 0 0 0 0 0 0 0 0 0 0 0 0.25 0"/>
<feBlend mode="normal" in2="BackgroundImageFix" result="effect1_dropShadow_46_14"/>
<feBlend mode="normal" in="SourceGraphic" in2="effect1_dropShadow_46_14" result="shape"/>
</filter>
<clipPath id="clip0_46_14">
<rect width="45" height="45" fill="white" transform="translate(4)"/>
</clipPath>
</defs>
</svg>
