<svg width="120" height="20" viewBox="0 0 120 20" fill="none" xmlns="http://www.w3.org/2000/svg">
<path d="M10 0L13.0918 5.74457L19.5106 6.90983L15.0026 11.6254L15.8779 18.0902L10 15.26L4.12215 18.0902L4.99744 11.6254L0.489435 6.90983L6.90825 5.74457L10 0Z" fill="#DC8C2A"/>
<path d="M35 0L38.0918 5.74457L44.5106 6.90983L40.0026 11.6254L40.8779 18.0902L35 15.26L29.1221 18.0902L29.9974 11.6254L25.4894 6.90983L31.9082 5.74457L35 0Z" fill="#DC8C2A"/>
<path d="M60 0L63.0918 5.74457L69.5106 6.90983L65.0026 11.6254L65.8779 18.0902L60 15.26L54.1221 18.0902L54.9974 11.6254L50.4894 6.90983L56.9082 5.74457L60 0Z" fill="#DC8C2A"/>
<path d="M85 0L88.0918 5.74457L94.5106 6.90983L90.0026 11.6254L90.8779 18.0902L85 15.26L79.1221 18.0902L79.9974 11.6254L75.4894 6.90983L81.9082 5.74457L85 0Z" fill="#DC8C2A"/>
<path d="M110 0L113.092 5.74457L119.511 6.90983L115.003 11.6254L115.878 18.0902L110 15.26L104.122 18.0902L104.997 11.6254L100.489 6.90983L106.908 5.74457L110 0Z" fill="#DC8C2A"/>
</svg>
