<svg width="29" height="21" viewBox="0 0 29 21" fill="none" xmlns="http://www.w3.org/2000/svg">
<path d="M28.5538 3.3483C27.51 3.74913 26.3888 4.01996 25.21 4.14238C26.4263 3.51165 27.3362 2.51897 27.77 1.34955C26.6273 1.93779 25.3767 2.35184 24.0725 2.57371C23.1955 1.76215 22.0338 1.22423 20.7679 1.04348C19.502 0.86272 18.2026 1.04924 17.0715 1.57407C15.9405 2.0989 15.041 2.93269 14.5127 3.94598C13.9844 4.95926 13.8569 6.09536 14.15 7.17788C11.8346 7.07713 9.56954 6.55556 7.50178 5.64703C5.43403 4.7385 3.6098 3.4633 2.1475 1.90421C1.6475 2.65171 1.36 3.51838 1.36 4.44138C1.35944 5.27229 1.59554 6.09048 2.04735 6.82334C2.49916 7.5562 3.1527 8.18109 3.95 8.64255C3.02535 8.61705 2.12109 8.40051 1.3125 8.01096V8.07596C1.31241 9.24135 1.77754 10.3709 2.62898 11.2729C3.48042 12.1749 4.66571 12.7938 5.98375 13.0246C5.12598 13.2258 4.22667 13.2555 3.35375 13.1113C3.72562 14.114 4.44999 14.9909 5.42546 15.6191C6.40092 16.2474 7.57865 16.5955 8.79375 16.6148C6.73104 18.0182 4.18361 18.7794 1.56125 18.776C1.09673 18.7762 0.632596 18.7526 0.17125 18.7056C2.8331 20.1889 5.93168 20.9761 9.09625 20.973C19.8087 20.973 25.665 13.2835 25.665 6.61455C25.665 6.39788 25.6588 6.17905 25.6475 5.96238C26.7866 5.24844 27.7699 4.36435 28.5513 3.35155L28.5538 3.3483Z" fill="#BB2B10"/>
</svg>
