<svg width="288" height="231" viewBox="0 0 288 231" fill="none" xmlns="http://www.w3.org/2000/svg">
<path d="M144.113 197.038C205.744 197.038 255.706 194.703 255.706 191.821C255.706 188.94 205.744 186.605 144.113 186.605C82.482 186.605 32.5202 188.94 32.5202 191.821C32.5202 194.703 82.482 197.038 144.113 197.038Z" fill="#F5F5F5"/>
<path d="M111.532 55.1399C107.048 58.0985 102.668 62.8682 105.235 68.0435C107.802 73.2188 124.228 73.7395 127.681 71.6104C132.171 68.8454 128.205 56.5316 124.706 56.4579C124.441 51.8909 115.278 52.6652 111.532 55.1399Z" fill="#263238"/>
<path d="M105.252 104.98C105.252 104.98 107.054 131.221 109.039 145.428C109.241 158.77 113.068 188.909 113.068 188.909H117.275C117.983 173.955 123.181 159.991 119.727 146.802C127.785 120.902 122.265 104.999 122.265 104.999L105.252 104.98Z" fill="#FFB573"/>
<path d="M109.834 104.999C109.834 104.999 118.496 134.105 120.867 146.502C123.365 159.526 127.083 184.798 126.91 188.9H130.542C130.542 188.9 136.643 163.332 130.997 146.963C135.653 110.095 124.165 105.026 124.165 105.026L109.834 104.999Z" fill="#FFB573"/>
<path d="M89.0623 71.3346C88.7918 69.7628 85.1889 69.6291 85.1889 69.6291L83.4622 68.9331C83.1592 68.7844 82.7958 68.736 82.4489 68.7979C82.1021 68.8598 81.7988 69.0273 81.6032 69.2649L81.0277 70.0301C80.8601 70.3313 80.8323 70.6705 80.9494 70.9866C81.0666 71.3027 81.3209 71.5749 81.6665 71.7541L82.1903 72.0583C83.0813 72.5683 84.1355 72.8641 85.2292 72.911L86.8234 72.9802C87.1736 72.9963 87.5245 72.962 87.8594 72.8788C88.2561 72.7789 88.5944 72.5677 88.8122 72.284C89.03 72.0003 89.1127 71.6632 89.0451 71.3346H89.0623Z" fill="#FFB573"/>
<path d="M108.038 80.5277C107.819 80.7075 107.704 80.795 107.543 80.9102L107.088 81.2328C106.789 81.4356 106.478 81.6245 106.173 81.8135C105.552 82.1822 104.919 82.5232 104.268 82.8458C102.963 83.4747 101.592 84.0113 100.17 84.4495C97.339 85.3314 94.3331 85.7997 91.2954 85.832H91.0307C90.8919 85.8297 90.7535 85.8205 90.6163 85.8044C90.3459 85.7727 90.0812 85.7155 89.8278 85.6339C89.401 85.493 89.0107 85.2899 88.6767 85.0348C88.2441 84.6946 87.8913 84.295 87.6349 83.855C87.2759 83.2319 87.0075 82.5778 86.8349 81.9057C86.5297 80.7488 86.3373 79.5747 86.2594 78.394C86.1035 76.1326 86.1612 73.8649 86.432 71.6104C86.4641 71.3584 86.6107 71.1247 86.844 70.9537C87.0773 70.7826 87.381 70.6862 87.6972 70.6828C88.0135 70.6794 88.3203 70.7692 88.5593 70.9352C88.7983 71.1011 88.9527 71.3316 88.9932 71.5828V71.6104C89.304 73.7579 89.6608 75.9377 90.1443 78.0253C90.3574 79.0364 90.6516 80.0354 91.0249 81.0162C91.1735 81.4174 91.3782 81.8039 91.635 82.1683C91.7386 82.302 91.8422 82.3665 91.7961 82.3204C91.7199 82.2544 91.6253 82.2039 91.5199 82.1729C91.4266 82.139 91.3277 82.1157 91.2263 82.1038H91.0709C92.3082 82.0133 93.5356 81.8501 94.7429 81.6153C95.9394 81.3761 97.1127 81.0681 98.2538 80.6936C99.3901 80.3042 100.485 79.8418 101.529 79.3111C102.052 79.053 102.559 78.7811 103.048 78.4908C103.29 78.3479 103.52 78.2005 103.75 78.053L104.084 77.8318L104.337 77.6521L104.487 77.5461C104.989 77.1861 105.647 76.9974 106.32 77.0201C106.993 77.0428 107.628 77.2751 108.091 77.6676C108.553 78.06 108.806 78.5816 108.795 79.121C108.784 79.6604 108.51 80.1751 108.032 80.5554L108.038 80.5277Z" fill="#FFB573"/>
<path d="M110.87 75.4125C106.317 74.8041 101.54 77.2835 99.0652 79.302C97.7875 82.3804 101.88 86.1224 101.88 86.1224C101.88 86.1224 107.71 83.256 109.811 81.2974C111.911 79.3388 113.494 75.7627 110.87 75.4125Z" fill="#E0E0E0"/>
<path d="M124.971 104.648C124.971 104.648 131.394 108.298 132.602 120.432C133.086 125.211 133.955 144.276 135.785 152.479C129.195 156.249 109.465 155.733 106.375 153.53C107.249 136.94 99.33 114.934 105.074 104.814C114.582 103.879 124.971 104.648 124.971 104.648Z" fill="#263238"/>
<path opacity="0.2" d="M118.455 139.447C118.542 132.474 117.258 122.879 113.362 117.193C114.691 124.289 118.455 139.447 118.455 139.447Z" fill="black"/>
<path d="M102.058 81.0348C102.058 84.9842 98.127 87.058 102.576 90.0996C102.841 93.5098 103.152 99.616 104.458 105.178C105.811 106.685 115.698 106.561 125.972 104.777C124.631 100.008 125.126 92.2379 128.643 81.6108C128.83 81.0211 128.863 80.4067 128.74 79.8062C128.617 79.2057 128.34 78.632 127.928 78.121C127.515 77.6101 126.975 77.1729 126.341 76.8369C125.707 76.5009 124.994 76.2732 124.245 76.1683C123.399 76.0484 122.519 75.9378 121.586 75.8457C118.373 75.4664 115.13 75.2723 111.883 75.265C110.835 75.265 109.747 75.3203 108.711 75.3756C106.912 75.4647 105.222 76.0994 103.986 77.1507C102.75 78.2021 102.06 79.5909 102.058 81.0348Z" fill="#E0E0E0"/>
<path d="M123.046 87.8919L110.989 90.0782C110.53 90.1614 110.242 90.5267 110.346 90.8941L114.25 104.697C114.354 105.064 114.81 105.295 115.269 105.212L127.326 103.025C127.785 102.942 128.073 102.577 127.969 102.209L124.065 88.4064C123.961 88.0391 123.505 87.8087 123.046 87.8919Z" fill="#BB2B10"/>
<path d="M113.074 80.3573C113.074 80.3573 111.123 82.2287 109.511 82.662L109.327 83.5839C111.365 83.3755 113.246 82.5986 114.64 81.3898L113.074 80.3573Z" fill="#BB2B10"/>
<path d="M107.773 79.2282C107.773 79.2282 107.692 81.6615 108.532 82.8504L107.905 83.6431C106.549 82.4067 105.779 80.8275 105.73 79.1821L107.773 79.2282Z" fill="#BB2B10"/>
<path d="M121.189 67.0804C120.418 69.5321 119.514 74.053 121.586 75.8365C121.586 75.8365 113.868 77.5232 108.838 83.0533C106.536 77.242 111.906 75.2558 111.906 75.2558C115.422 74.795 115.468 72.7396 114.985 70.7672L121.189 67.0804Z" fill="#FFB573"/>
<path opacity="0.2" d="M118.662 68.5874L114.991 70.7764C115.109 71.2316 115.179 71.6942 115.198 72.1589C116.533 72.0852 118.432 71.0299 118.65 69.9285C118.751 69.4854 118.755 69.0316 118.662 68.5874Z" fill="black"/>
<path d="M124.769 62.7116C123.29 66.6841 122.772 68.3938 119.658 69.9561C114.973 72.3018 109.298 69.8869 109.264 65.6195C109.264 61.7761 111.664 55.9418 116.999 55.3058C122.335 54.6699 126.271 58.7345 124.769 62.7116Z" fill="#FFB573"/>
<path d="M120.902 56.9096C119.503 60.7392 120.7 64.744 123.555 65.2048C127.52 64.0205 127.325 60.495 126.312 58.882C125.299 57.2691 121.707 54.7022 120.902 56.9096Z" fill="#263238"/>
<path d="M123.07 63.7899C120.867 64.3752 120.441 65.5596 120.441 65.5596C120.441 65.5596 121.954 64.7024 123.404 64.8637C123.194 64.5304 123.08 64.1634 123.07 63.7899Z" fill="#263238"/>
<path d="M117.562 62.3382C117.465 62.6654 117.171 62.8867 116.901 62.836C116.631 62.7853 116.487 62.4673 116.585 62.1401C116.682 61.8129 116.976 61.5871 117.246 61.6424C117.516 61.6977 117.637 62.0111 117.562 62.3382Z" fill="#263238"/>
<path d="M112.457 61.366C112.36 61.6932 112.066 61.9144 111.796 61.8591C111.526 61.8038 111.382 61.495 111.48 61.1632C111.577 60.8314 111.871 60.6148 112.141 60.6701C112.411 60.7254 112.561 61.0342 112.457 61.366Z" fill="#263238"/>
<path d="M112.268 60.7115L111.342 60.283C111.342 60.283 111.669 61.0019 112.268 60.7115Z" fill="#263238"/>
<path d="M113.425 61.9005C112.84 62.5753 112.138 63.1804 111.342 63.6978C111.517 63.8602 111.733 63.9906 111.976 64.0805C112.219 64.1703 112.484 64.2174 112.751 64.2186L113.425 61.9005Z" fill="#ED893E"/>
<path d="M124.797 66.6979C124.493 66.9845 124.114 67.2151 123.688 67.3741C123.262 67.5331 122.799 67.6169 122.329 67.6196C121.126 67.592 120.919 66.486 121.581 65.5781C122.156 64.7578 123.514 63.7854 124.561 64.2509C125.609 64.7163 125.614 65.9514 124.797 66.6979Z" fill="#FFB573"/>
<path d="M118.523 60.9281C118.461 60.9036 118.414 60.8606 118.391 60.8083C118.299 60.5673 118.139 60.3465 117.923 60.1628C117.708 59.979 117.443 59.8373 117.149 59.7484C117.085 59.7343 117.031 59.7009 116.998 59.6553C116.964 59.6097 116.954 59.5554 116.97 59.5041C116.978 59.4788 116.991 59.455 117.011 59.4341C117.03 59.4133 117.054 59.3958 117.082 59.3828C117.11 59.3699 117.141 59.3617 117.174 59.3587C117.206 59.3558 117.238 59.3583 117.269 59.3659C117.646 59.4709 117.986 59.6453 118.263 59.875C118.539 60.1048 118.745 60.3834 118.862 60.6885C118.874 60.7129 118.879 60.7391 118.877 60.7652C118.876 60.7913 118.867 60.8169 118.853 60.8403C118.838 60.8636 118.818 60.8843 118.793 60.9011C118.768 60.9178 118.738 60.9301 118.707 60.9374C118.646 60.9529 118.581 60.9497 118.523 60.9281Z" fill="#263238"/>
<path d="M110.605 59.4028C110.54 59.4045 110.476 59.3864 110.427 59.3521C110.381 59.3143 110.356 59.2639 110.356 59.2115C110.356 59.1591 110.381 59.1087 110.427 59.071C110.683 58.8334 111.008 58.649 111.372 58.5334C111.737 58.4179 112.131 58.3746 112.521 58.4073C112.587 58.4164 112.646 58.4454 112.685 58.4883C112.725 58.5313 112.742 58.5848 112.734 58.6378C112.724 58.6897 112.689 58.7364 112.636 58.7675C112.583 58.7986 112.517 58.8116 112.452 58.8037C112.143 58.779 111.832 58.8148 111.544 58.9079C111.256 59.001 111.001 59.1487 110.801 59.3382C110.776 59.3597 110.745 59.3765 110.712 59.3877C110.678 59.3988 110.641 59.4039 110.605 59.4028Z" fill="#263238"/>
<path d="M117.361 61.6886L116.435 61.2554C116.435 61.2554 116.763 61.9789 117.361 61.6886Z" fill="#263238"/>
<path d="M117.062 94.4086L112.458 93.6941L112.976 97.9302C112.976 97.9302 116.429 97.8104 118.398 96.5474L118.582 95.9942C118.369 95.0769 118.11 94.7404 117.062 94.4086Z" fill="#FFB573"/>
<path d="M109.69 95.5006L110.225 97.2933C110.303 97.5507 110.499 97.7754 110.774 97.923C111.049 98.0705 111.382 98.1303 111.71 98.0905L112.999 97.9292L112.481 93.6941L110.518 94.2655C110.216 94.3545 109.964 94.5293 109.811 94.7569C109.658 94.9846 109.615 95.2492 109.69 95.5006Z" fill="#FFB573"/>
<path d="M127.359 79.2651C128.758 81.4105 129.979 83.6273 131.014 85.9012C131.532 87.0395 132.021 88.2055 132.412 89.3991C132.839 90.6358 133.128 91.9004 133.276 93.178C133.31 93.5144 133.327 93.86 133.333 94.2102V94.3347V94.5328C133.319 94.6686 133.288 94.8029 133.241 94.9338C133.156 95.1878 133.025 95.4302 132.85 95.6527C132.583 95.9839 132.234 96.2678 131.825 96.4868C131.325 96.7534 130.772 96.9512 130.191 97.0721C129.75 97.1696 129.302 97.245 128.85 97.2979C127.281 97.4559 125.698 97.5037 124.119 97.4408C121.125 97.3301 118.145 97.0437 115.203 96.5836C114.885 96.5414 114.598 96.4045 114.4 96.2003C114.201 95.9961 114.107 95.7395 114.134 95.4819C114.162 95.2242 114.31 94.9844 114.548 94.8102C114.787 94.636 115.099 94.5402 115.422 94.5421C118.3 94.5006 121.212 94.4407 124.015 94.2702C125.357 94.1957 126.69 94.0417 128.004 93.8093C128.272 93.7597 128.535 93.695 128.792 93.6158C128.919 93.5875 129.037 93.5372 129.137 93.4683C129.027 93.5206 128.936 93.5953 128.873 93.6849C128.796 93.782 128.738 93.8876 128.7 93.9983C128.68 94.0604 128.664 94.1235 128.654 94.1872C128.651 94.2179 128.651 94.2487 128.654 94.2794C128.654 94.0444 128.602 93.8185 128.556 93.5605C128.053 91.4246 127.268 89.3375 126.214 87.3345C125.172 85.2561 123.98 83.1408 122.76 81.1453V81.1085C122.513 80.6262 122.502 80.0871 122.728 79.5984C122.955 79.1097 123.403 78.7073 123.984 78.4713C124.565 78.2354 125.235 78.1832 125.861 78.3252C126.488 78.4672 127.025 78.7929 127.365 79.2375L127.359 79.2651Z" fill="#FFB573"/>
<path d="M124.545 76.311C127.842 76.7995 129.31 79.1729 131.704 83.9103C130.973 87.0994 125.12 88.7769 125.12 88.7769C125.12 88.7769 121.759 84.0071 121.091 81.4771C120.424 78.9471 121.218 75.8179 124.545 76.311Z" fill="#E0E0E0"/>
<path d="M117.575 188.946C117.548 188.884 117.495 188.832 117.426 188.798C117.357 188.764 117.276 188.749 117.195 188.757L113.293 188.711C112.893 188.689 112.495 188.758 112.142 188.909C110.355 189.803 108.349 190.377 106.26 190.592C105.431 190.693 105.805 191.813 107.762 191.831C110.991 191.859 111.578 191.666 114.334 191.689C116.688 191.712 115.566 191.795 117.437 191.831C117.886 191.831 118.254 191.606 118.196 191.371L117.575 188.946Z" fill="#263238"/>
<path d="M131.037 188.946C131.009 188.885 130.957 188.833 130.888 188.799C130.819 188.765 130.738 188.75 130.657 188.757L127.474 188.711C127.075 188.688 126.676 188.757 126.323 188.909C125.172 189.55 125.333 190.292 122.709 190.592C121.88 190.693 122.289 191.813 124.246 191.831C127.474 191.859 127.279 191.689 128.591 191.689C129.903 191.689 129.097 191.795 130.974 191.831C131.423 191.831 131.785 191.606 131.716 191.371L131.037 188.946Z" fill="#263238"/>
<path d="M110.95 81.067C112.585 81.1223 115.583 82.1961 116.545 83.3436C117.903 82.2145 123.209 79.5923 123.302 76.0392C122.652 75.5391 121.834 75.2026 120.948 75.0714C120.948 75.0714 113.868 77.8134 110.95 81.067Z" fill="#FAFAFA"/>
<path d="M108.303 80.8827C108.303 80.8827 107.86 78.0117 112.199 75.2236C111.762 74.9378 110.047 75.2604 110.047 75.2604C110.047 75.2604 104.976 77.007 105.126 81.5279C106.04 80.9899 107.179 80.7585 108.303 80.8827Z" fill="#FAFAFA"/>
<path d="M107.658 82.0992C107.031 82.3343 106.783 83.9703 107.658 84.3528C108.533 84.7353 108.446 83.173 108.953 82.6384C109.459 82.1038 108.757 81.6891 107.658 82.0992Z" fill="#BB2B10"/>
<path d="M108.429 82.7352C107.981 83.1961 108.562 84.7629 109.528 84.7583C110.494 84.7537 109.66 83.3758 109.85 82.6937C110.04 82.0117 109.194 81.9241 108.429 82.7352Z" fill="#BB2B10"/>
<path d="M108.562 83.9012C107.486 82.5694 107.411 89.588 110.018 92.3531C109.845 89.6295 111.67 85.7676 108.562 83.9012Z" fill="#BB2B10"/>
<path d="M108.464 83.8413C107.986 82.4864 105.586 88.422 106.916 91.3208C107.67 88.9751 110.484 86.081 108.464 83.8413Z" fill="#BB2B10"/>
<path d="M116.487 65.4859C116.737 65.3985 116.978 65.2936 117.206 65.1725C117.219 65.1622 117.229 65.15 117.236 65.1366C117.243 65.1231 117.246 65.1087 117.246 65.0942C117.246 65.0796 117.243 65.0652 117.236 65.0517C117.229 65.0383 117.219 65.0261 117.206 65.0158C117.182 64.9913 117.147 64.9748 117.109 64.9697C117.071 64.9646 117.031 64.9712 116.999 64.9882C116.486 65.2637 115.902 65.4437 115.29 65.5146C114.679 65.5856 114.055 65.5459 113.466 65.3983C113.448 65.3922 113.43 65.3889 113.411 65.3886C113.392 65.3883 113.373 65.3911 113.355 65.3966C113.337 65.4022 113.321 65.4105 113.308 65.4211C113.294 65.4316 113.283 65.4443 113.276 65.4582C113.263 65.4869 113.265 65.5186 113.281 65.5463C113.297 65.5739 113.326 65.5953 113.362 65.6057C114.386 65.8756 115.499 65.833 116.487 65.4859Z" fill="#263238"/>
<path d="M99.7847 68.7349H70.3799V69.5H99.7847V68.7349Z" fill="#BB2B10"/>
<path d="M99.0825 69.4999H71.0821L72.3138 70.0346H97.8508L99.0825 69.4999Z" fill="#BB2B10"/>
<path opacity="0.2" d="M99.0825 69.4999H71.0821L72.3138 70.0346H97.8508L99.0825 69.4999Z" fill="black"/>
<path d="M79.8011 48.2412C79.6292 48.24 79.4648 48.1848 79.3433 48.0874C79.2217 47.99 79.1528 47.8582 79.1513 47.7205V45.9739C79.1528 45.8361 79.2217 45.7044 79.3433 45.607C79.4648 45.5096 79.6292 45.4543 79.8011 45.4531C79.973 45.4543 80.1374 45.5096 80.2589 45.607C80.3805 45.7044 80.4494 45.8361 80.4509 45.9739V47.7205C80.4494 47.8582 80.3805 47.99 80.2589 48.0874C80.1374 48.1848 79.973 48.24 79.8011 48.2412Z" fill="#263238"/>
<path d="M80.8492 45.8678V45.6374C80.8492 45.4134 80.6225 45.2318 80.3429 45.2318H79.2611C78.9814 45.2318 78.7547 45.4134 78.7547 45.6374V45.8678C78.7547 46.0917 78.9814 46.2733 79.2611 46.2733H80.3429C80.6225 46.2733 80.8492 46.0917 80.8492 45.8678Z" fill="#263238"/>
<path d="M80.8435 52.0338V47.0521C80.8435 46.9979 80.817 46.9458 80.7696 46.9071C80.7223 46.8683 80.6579 46.8459 80.5902 46.8447H79.0132C78.9455 46.8459 78.8811 46.8683 78.8338 46.9071C78.7865 46.9458 78.76 46.9979 78.76 47.0521V52.0338C78.7602 52.4082 78.6613 52.7784 78.4698 53.12C78.2783 53.4615 77.9986 53.7667 77.6492 54.0155C77.301 54.266 77.0222 54.5722 76.8309 54.9143C76.6395 55.2564 76.5399 55.6268 76.5384 56.0017V68.7809H83.0593V56.0017C83.0589 55.6267 82.9597 55.256 82.7683 54.9138C82.5769 54.5715 82.2976 54.2654 81.9485 54.0155C81.6006 53.7659 81.3224 53.4605 81.132 53.119C80.9416 52.7776 80.8433 52.4078 80.8435 52.0338Z" fill="#BB2B10"/>
<path d="M83.0592 57.5133H78.7542V65.7762H83.0592V57.5133Z" fill="#E0E0E0"/>
<path d="M89.1709 68.7349H88.3945C88.653 68.7485 88.9124 68.7485 89.1709 68.7349Z" fill="#BB2B10"/>
<path d="M93.8617 68.7349H93.0796C93.34 68.7484 93.6013 68.7484 93.8617 68.7349Z" fill="#BB2B10"/>
<path opacity="0.2" d="M88.1298 58.988V61.0849C88.1298 62.7531 89.3154 64.1403 90.8176 64.3108V67.9975C90.8176 68.5644 90.1269 68.7257 89.5917 68.7625H92.6594C92.1241 68.7257 91.4334 68.5644 91.4334 67.9975V64.3108C92.9356 64.1449 94.1212 62.7577 94.1212 61.0849V58.988H88.1298Z" fill="#BB2B10"/>
<path d="M123.791 57.0162C121.489 57.7998 113.776 58.0395 110.755 57.514C113.88 53.9786 120.902 52.9414 123.791 57.0162Z" fill="#263238"/>
<path d="M131.048 69.6427C131.026 69.6423 131.004 69.638 130.984 69.63C130.964 69.6221 130.947 69.6106 130.933 69.5966C130.858 69.5136 129.161 67.5136 129.126 62.1586C129.126 59.9235 128.268 58.1262 126.824 57.2183C126.448 56.97 126.006 56.7956 125.531 56.7092C125.056 56.6227 124.563 56.6267 124.09 56.7206C124.071 56.724 124.052 56.7243 124.034 56.7217C124.015 56.7191 123.997 56.7136 123.981 56.7055C123.965 56.6973 123.951 56.6868 123.94 56.6743C123.929 56.6619 123.921 56.6479 123.917 56.6331C123.913 56.6182 123.913 56.6029 123.916 56.5879C123.919 56.573 123.926 56.5586 123.936 56.5458C123.946 56.533 123.96 56.5219 123.975 56.5131C123.991 56.5044 124.008 56.4981 124.027 56.4948C124.54 56.3969 125.075 56.3947 125.59 56.4881C126.105 56.5816 126.586 56.7683 126.997 57.034C128.522 57.9879 129.402 59.8544 129.42 62.154C129.454 67.426 131.146 69.4445 131.146 69.4629C131.157 69.4753 131.165 69.4893 131.169 69.5042C131.174 69.519 131.174 69.5344 131.171 69.5493C131.168 69.5643 131.161 69.5787 131.151 69.5915C131.14 69.6044 131.127 69.6155 131.112 69.6242C131.092 69.6339 131.071 69.6402 131.048 69.6427Z" fill="#263238"/>
<path d="M172.465 42.5128C174.071 44.2732 174.065 47.0153 173.518 48.5038C170.64 47.4577 171.089 44.453 171.089 44.453L172.465 42.5128Z" fill="#263238"/>
<path d="M181.069 64.3015L182.727 65.7623L184.453 67.2463C185.605 68.2279 186.756 69.1864 187.941 70.1081C188.517 70.5689 189.092 71.0298 189.708 71.4353C190.324 71.8409 190.859 72.2741 191.464 72.6473C192.068 73.0206 192.615 73.3524 193.15 73.6382C193.553 73.8546 193.976 74.0456 194.416 74.2096L193.536 74.099C193.274 74.0738 193.01 74.121 192.787 74.2326C192.787 74.2326 192.925 74.2326 193.121 74.1405C193.656 73.8783 194.152 73.5692 194.6 73.2188C195.779 72.3222 196.881 71.363 197.898 70.3477C198.998 69.2924 200.068 68.1679 201.133 67.0297C202.198 65.8914 203.262 64.7255 204.31 63.578L204.362 63.5273C204.729 63.1397 205.254 62.8674 205.845 62.7578C206.437 62.6482 207.058 62.7083 207.6 62.9275C208.143 63.1468 208.572 63.5114 208.813 63.9578C209.054 64.4042 209.092 64.9041 208.92 65.3706C208.337 66.8271 207.663 68.2591 206.9 69.6611C206.146 71.0436 205.311 72.4261 204.367 73.8087C203.388 75.2466 202.256 76.6142 200.983 77.8963C200.224 78.6543 199.367 79.3463 198.428 79.9609C197.805 80.3642 197.123 80.7047 196.396 80.9748C195.329 81.373 194.16 81.5656 192.983 81.537C192.766 81.5305 192.55 81.5073 192.338 81.4679L192.097 81.4264C190.836 81.1845 189.616 80.8208 188.465 80.3434C187.501 79.9501 186.568 79.5083 185.674 79.0208C184.033 78.1364 182.467 77.1649 180.989 76.1129C179.538 75.1036 178.191 74.0483 176.885 72.9745C176.24 72.4308 175.596 71.887 174.98 71.3247C174.364 70.7625 173.771 70.2141 173.121 69.5735C172.395 68.7294 172.085 67.7001 172.251 66.6839C172.417 65.6677 173.047 64.7366 174.019 64.0702C174.991 63.4038 176.237 63.0493 177.517 63.075C178.797 63.1007 180.019 63.5047 180.948 64.2093L181.069 64.3015Z" fill="#E0E0E0"/>
<path d="M206.888 66.0665L212.016 66.2646L210.353 60.7345C210.353 60.7345 205.582 61.0156 204.816 62.9788C204.736 63.1977 204.752 63.432 204.862 63.6424L205.806 65.4535C205.895 65.6273 206.044 65.7772 206.236 65.8858C206.428 65.9943 206.654 66.057 206.888 66.0665Z" fill="#FF8B7B"/>
<path d="M216.592 62.9834L215.602 61.1401C215.409 60.7827 215.065 60.4915 214.63 60.3178C214.195 60.144 213.697 60.099 213.225 60.1907L210.347 60.7576L212.01 66.2877L215.464 65.1724C215.72 65.0913 215.954 64.9695 216.151 64.8144C216.347 64.6593 216.503 64.4741 216.608 64.2698C216.714 64.0655 216.766 63.8463 216.764 63.6252C216.761 63.4042 216.702 63.186 216.592 62.9834Z" fill="#FF8B7B"/>
<path d="M168.942 142.649C163.498 123.474 160.131 100.353 160.131 100.353L182.456 100.068C182.456 100.068 182.145 131.225 182.191 144.276C182.249 157.848 183.423 187.715 183.423 187.715H176.649C176.649 187.715 167.906 159.424 168.942 142.649Z" fill="#263238"/>
<path d="M167.204 116.192L163.67 120.386C164.724 125.621 165.972 131.386 167.429 137.036C168.039 128.354 167.935 118.266 167.204 116.192Z" fill="black"/>
<path d="M192.459 190.375C192.459 190.375 183.13 188.614 182.428 187.43H177.248L177.282 191.822H180.482L180.971 191.417L181.783 191.822C184.373 191.822 191.256 191.74 192.885 191.274C192.918 191.107 192.895 190.937 192.821 190.779C192.746 190.622 192.621 190.483 192.459 190.375Z" fill="#263238"/>
<path d="M148.176 142.11C150.761 122.824 150.68 109.939 153.828 100.436L174.157 100.192C174.157 100.192 165.69 130.783 161.759 143.511C157.828 156.24 151.1 187.706 151.1 187.706H144.827C144.827 187.706 142.853 157.023 148.176 142.11Z" fill="#263238"/>
<path d="M152.217 104.192C151.768 106.496 150.168 120.128 148.511 125.091C162.065 129.907 182.785 128.013 183.423 124.889C183.233 119.1 182.848 104.192 182.848 104.192H152.217Z" fill="#E0E0E0"/>
<path opacity="0.1" d="M152.971 106.722C153.917 107.95 155.061 109.074 156.372 110.063C156.372 110.063 153.449 109.644 152.971 106.722Z" fill="black"/>
<path opacity="0.1" d="M180.217 109.934C180.994 109.006 181.624 108.005 182.092 106.953C182.092 106.953 182.224 109.307 180.217 109.934Z" fill="black"/>
<path opacity="0.1" d="M153.098 108.459C153.41 109.383 153.872 110.269 154.472 111.095C153.925 110.829 153.497 110.43 153.25 109.957C153.003 109.483 152.95 108.959 153.098 108.459Z" fill="black"/>
<path d="M156.948 190.375C156.948 190.375 151.129 188.614 150.461 187.43H145.281L145.178 191.822H149.42L149.92 191.417L150.72 191.822C153.31 191.822 155.699 191.74 157.345 191.274C157.384 191.109 157.368 190.939 157.298 190.781C157.229 190.624 157.108 190.483 156.948 190.375Z" fill="#263238"/>
<path d="M153.08 61.9604C160.263 61.2461 170.519 61.3152 177.397 62.2645C179.116 62.514 180.693 63.1898 181.905 64.1962C183.118 65.2027 183.904 66.4889 184.154 67.873C185.599 76.1912 184.356 90.7262 183.435 105.358C167.722 109.662 151.146 105.298 151.146 105.298C150.571 102.349 151.86 92.6756 152.723 87.5141C151.428 82.1822 148.695 76.076 146.864 68.9928C146.642 68.2005 146.63 67.3796 146.829 66.5833C147.028 65.787 147.434 65.033 148.02 64.3702C148.606 63.7073 149.359 63.1503 150.231 62.7352C151.102 62.3201 152.073 62.0561 153.08 61.9604Z" fill="#263238"/>
<path opacity="0.1" d="M153.08 61.9604C160.263 61.2461 170.519 61.3152 177.397 62.2645C179.116 62.514 180.693 63.1898 181.905 64.1962C183.118 65.2027 183.904 66.4889 184.154 67.873C185.599 76.1912 184.356 90.7262 183.435 105.358C167.722 109.662 151.146 105.298 151.146 105.298C150.571 102.349 151.86 92.6756 152.723 87.5141C151.428 82.1822 148.695 76.076 146.864 68.9928C146.642 68.2005 146.63 67.3796 146.829 66.5833C147.028 65.787 147.434 65.033 148.02 64.3702C148.606 63.7073 149.359 63.1503 150.231 62.7352C151.102 62.3201 152.073 62.0561 153.08 61.9604Z" fill="white"/>
<path d="M160.188 50.9785L168.361 56.3473C167.302 58.6009 166.968 60.9558 171.584 61.8452C172.735 63.0664 171.009 65.2094 168.96 66.0435C164.114 65.1587 161.322 64.1172 159.44 62.048C160.033 60.4258 160.977 54.3104 160.188 50.9785Z" fill="#FF8B7B"/>
<path opacity="0.2" d="M163.596 53.2183L168.361 56.3428C168.103 56.8638 167.91 57.4041 167.786 57.9557C165.938 58.0617 163.371 56.5732 163.256 55.2183C163.214 54.5406 163.329 53.8625 163.596 53.2183Z" fill="black"/>
<path d="M159.014 47.3194C159.762 51.4255 159.935 53.8588 162.761 55.7851C167.014 58.6838 173.184 56.3243 173.99 52.0983C174.709 48.3056 173.368 42.2271 168.148 40.9551C166.99 40.673 165.761 40.6312 164.578 40.8336C163.394 41.036 162.294 41.476 161.38 42.1123C160.467 42.7486 159.771 43.5602 159.357 44.4711C158.943 45.3819 158.825 46.362 159.014 47.3194Z" fill="#FF8B7B"/>
<path d="M158.968 49.2135C159.495 49.6707 160.176 49.9962 160.928 50.1507C161.681 50.3052 162.473 50.2822 163.21 50.0845C161.978 49.0844 163.175 45.4253 161.944 43.9368C164.327 44.3147 173.604 45.3931 174.491 42.817C175.452 40.0519 171.613 37.8445 169.46 37.6371C170.094 38.7892 170.036 39.6233 167.676 39.25C165.317 38.8768 155.59 37.0795 156.666 40.7293C153.535 40.7293 153.322 44.3792 155.613 46.1258C156.868 47.0547 157.993 48.09 158.968 49.2135Z" fill="#263238"/>
<path d="M157.241 40.5544C155.365 40.1812 155.952 38.7986 156.372 38.6558C154.617 38.9968 153.978 40.3793 156.096 41.0153C158.213 41.6512 157.241 40.5544 157.241 40.5544Z" fill="#263238"/>
<path d="M157.57 49.8402C157.744 50.2901 158.029 50.7079 158.406 51.0694C158.783 51.4309 159.246 51.7289 159.768 51.9463C161.178 52.5223 162.203 51.573 162.071 50.384C161.961 49.3103 161.104 47.7203 159.561 47.619C159.222 47.6054 158.884 47.6602 158.578 47.7783C158.272 47.8964 158.008 48.0741 157.809 48.2951C157.611 48.516 157.486 48.7733 157.444 49.0432C157.402 49.3131 157.445 49.5872 157.57 49.8402Z" fill="#FF8B7B"/>
<path d="M166.214 47.4669C166.249 47.8033 166.502 48.0614 166.79 48.043C167.077 48.0245 167.261 47.7296 167.227 47.3978C167.192 47.066 166.939 46.8033 166.651 46.8217C166.364 46.8401 166.18 47.1305 166.214 47.4669Z" fill="#263238"/>
<path d="M171.233 47.3701C171.268 47.7065 171.521 47.9646 171.808 47.9416C172.096 47.9185 172.274 47.6328 172.24 47.2964C172.205 46.96 171.952 46.7065 171.665 46.7249C171.377 46.7434 171.199 47.0337 171.233 47.3701Z" fill="#263238"/>
<path d="M170.214 47.8218C170.82 48.8123 171.594 49.7305 172.516 50.55C171.831 51.1583 170.542 51.0108 170.542 51.0108L170.214 47.8218Z" fill="#FF5652"/>
<path d="M165.437 46.3977C165.398 46.4066 165.356 46.4066 165.317 46.3977C165.286 46.3886 165.258 46.3746 165.234 46.3565C165.21 46.3384 165.191 46.3166 165.178 46.2924C165.165 46.2683 165.159 46.2423 165.159 46.216C165.159 46.1897 165.165 46.1638 165.178 46.1396C165.317 45.8438 165.54 45.5783 165.831 45.3652C166.122 45.1521 166.473 44.9974 166.853 44.9138C166.918 44.9034 166.985 44.9141 167.04 44.9435C167.095 44.9728 167.133 45.0185 167.146 45.0705C167.159 45.1224 167.146 45.1764 167.109 45.2204C167.073 45.2645 167.016 45.2951 166.951 45.3055C166.65 45.3738 166.373 45.4984 166.144 45.669C165.915 45.8397 165.74 46.0515 165.633 46.2871C165.615 46.3173 165.587 46.3433 165.553 46.3626C165.519 46.382 165.479 46.394 165.437 46.3977Z" fill="#263238"/>
<path d="M174.145 45.8632C174.104 45.8634 174.063 45.855 174.026 45.8388C173.99 45.8227 173.96 45.7993 173.938 45.771C173.785 45.5556 173.57 45.3726 173.311 45.2371C173.051 45.1016 172.755 45.0177 172.448 44.9922C172.415 44.9916 172.383 44.9859 172.353 44.9754C172.324 44.9649 172.297 44.9498 172.274 44.9309C172.252 44.9121 172.234 44.8899 172.223 44.8656C172.211 44.8414 172.205 44.8155 172.206 44.7894C172.209 44.7365 172.238 44.6865 172.286 44.6504C172.335 44.6142 172.399 44.5946 172.465 44.5959C172.855 44.6244 173.231 44.7271 173.561 44.8954C173.891 45.0637 174.166 45.2928 174.364 45.5637C174.396 45.6086 174.406 45.6619 174.391 45.7125C174.376 45.7631 174.338 45.8072 174.283 45.8355C174.243 45.8575 174.194 45.8673 174.145 45.8632Z" fill="#263238"/>
<path d="M159.44 62.048C159.44 62.048 167.826 72.2511 171.014 79.4494C174.157 71.0022 174.52 64.2416 171.59 61.8452C170.646 62.7992 166.847 64.0895 159.44 62.048Z" fill="#E0E0E0"/>
<path d="M156.58 69.5873L155.768 71.4307L154.962 73.3478C154.427 74.6243 153.938 75.9055 153.483 77.1636C153.253 77.7949 153.052 78.4217 152.867 79.0392C152.683 79.6567 152.505 80.2697 152.378 80.8549C152.252 81.4402 152.154 82.007 152.09 82.514C152.058 82.9022 152.058 83.2917 152.09 83.6799L151.791 83.0071C151.549 82.643 151.302 82.5462 151.29 82.5462C151.279 82.5462 151.371 82.6384 151.549 82.7398C152.085 82.9928 152.655 83.1968 153.247 83.3481C154.778 83.7599 156.341 84.0894 157.926 84.3343C159.613 84.6016 161.351 84.7951 163.106 85.0256C164.862 85.256 166.669 85.4173 168.407 85.6154H168.488C169.095 85.685 169.651 85.9244 170.059 86.2911C170.467 86.6579 170.699 87.1283 170.715 87.6191C170.731 88.1099 170.529 88.5894 170.146 88.9725C169.762 89.3557 169.222 89.6178 168.62 89.7123C166.745 89.9974 164.853 90.2066 162.951 90.3391C161.052 90.4773 159.135 90.5465 157.196 90.5373C155.15 90.5343 153.109 90.3909 151.095 90.1087C149.912 89.9319 148.755 89.6586 147.641 89.293C146.9 89.0481 146.2 88.7292 145.558 88.3436C144.612 87.7842 143.843 87.055 143.313 86.2145C143.216 86.0581 143.136 85.8945 143.077 85.7261L143.014 85.5371C142.678 84.5339 142.494 83.5018 142.467 82.4633C142.439 81.5973 142.48 80.7307 142.588 79.8687C142.772 78.2941 143.089 76.7314 143.538 75.1912C143.946 73.6888 144.464 72.2372 145.023 70.8039C145.31 70.0896 145.598 69.3799 145.921 68.6748C146.243 67.9697 146.565 67.2923 146.962 66.5319C147.482 65.5386 148.463 64.7459 149.699 64.3216C150.935 63.8973 152.329 63.8746 153.586 64.2583C154.843 64.642 155.864 65.402 156.433 66.3776C157.002 67.3532 157.076 68.4679 156.637 69.4859L156.58 69.5873Z" fill="#E0E0E0"/>
<path d="M169.224 86.21L174.312 86.717L171.503 91.9291C171.503 91.9291 166.859 91.0074 166.525 88.9613C166.492 88.735 166.559 88.5067 166.715 88.3161L168.027 86.6617C168.153 86.5038 168.333 86.3776 168.544 86.2977C168.756 86.2178 168.992 86.1874 169.224 86.21Z" fill="#FF8B7B"/>
<path d="M178.128 90.5742L176.758 92.2701C176.493 92.596 176.091 92.836 175.626 92.9474C175.16 93.0588 174.66 93.0343 174.214 92.8784L171.504 91.929L174.312 86.7169L177.484 88.2884C177.715 88.4031 177.916 88.5536 178.075 88.7312C178.233 88.9089 178.345 89.11 178.405 89.3229C178.466 89.5357 178.472 89.756 178.424 89.9709C178.377 90.1858 178.276 90.3908 178.128 90.5742Z" fill="#FF8B7B"/>
<path d="M159.849 60.4626C158.78 60.5986 157.799 61.021 157.069 61.6608C159.348 64.096 162.597 65.8356 166.278 66.5919C166.013 65.8868 166.807 63.8268 167.682 63.0895C164.465 62.707 159.849 60.4626 159.849 60.4626Z" fill="#FAFAFA"/>
<path d="M168.689 60.7161C169.78 60.8749 170.818 61.2156 171.734 61.7161C171.734 61.7161 174.957 64.5964 171.158 66.2231C171.417 65.518 169.432 63.6378 167.653 63.0894C170.865 62.7069 168.689 60.7161 168.689 60.7161Z" fill="#FAFAFA"/>
<path d="M168.01 64.7304C165.466 63.6379 162.318 62.4533 163.193 64.3662C164.067 66.2791 162.911 66.9429 164.05 67.5928C165.19 68.2428 167.504 66.4589 168.269 66.21C169.034 65.9611 168.01 64.7304 168.01 64.7304Z" fill="#BB2B10"/>
<path d="M169.811 64.7162C171.751 63.6701 174.179 62.5364 173.747 64.4028C173.316 66.2693 174.386 66.919 173.54 67.5504C172.694 68.1818 170.519 66.4167 169.829 66.1679C169.138 65.919 169.811 64.7162 169.811 64.7162Z" fill="#BB2B10"/>
<path d="M167.665 64.5826C168.24 64.3061 169.644 63.9559 170.34 64.7071C171.037 65.4583 170.812 66.7164 169.851 66.8684C169.508 66.924 169.152 66.9041 168.822 66.8108C168.492 66.7174 168.199 66.5542 167.975 66.3385C168.189 66.0631 168.275 65.7363 168.218 65.4154C168.161 65.0945 167.965 64.7997 167.665 64.5826Z" fill="#BB2B10"/>
<path d="M151.451 187.854L144.47 188.011L144.102 184.844L152.211 185.231L151.451 187.854Z" fill="black"/>
<path d="M183.671 187.845L176.131 188.011L175.297 185.268L183.717 184.614L183.671 187.845Z" fill="black"/>
<path d="M167.239 85.1362C163.713 84.3016 160.078 83.7989 156.407 83.6384C155.624 83.6753 155.325 97.837 155.388 103.63C155.388 104.413 166.646 104.257 169.524 103.902C169.685 102.284 169.719 90.4773 170.467 86.786C170.525 86.4972 170.459 86.2014 170.282 85.9458C170.105 85.6903 169.825 85.4896 169.489 85.3758C168.776 85.1456 168.002 85.0632 167.239 85.1362Z" fill="white"/>
<path d="M226.169 62.4673H194.215V63.1956H226.169V62.4673Z" fill="#BB2B10"/>
<path d="M225.501 63.1954H194.882L196.056 63.7071H224.333L225.501 63.1954Z" fill="#BB2B10"/>
<path opacity="0.2" d="M225.501 63.1954H194.882L196.056 63.7071H224.333L225.501 63.1954Z" fill="black"/>
<path d="M211.509 52.1814C211.51 52.3903 211.434 52.5948 211.29 52.7689C211.146 52.9431 210.94 53.079 210.7 53.1596C210.459 53.2402 210.194 53.2618 209.938 53.2216C209.682 53.1814 209.447 53.0812 209.262 52.9338C209.077 52.7864 208.951 52.5984 208.9 52.3935C208.848 52.1887 208.874 51.9763 208.974 51.7832C209.073 51.5901 209.242 51.425 209.459 51.3088C209.676 51.1926 209.931 51.1306 210.191 51.1306C210.364 51.13 210.535 51.1567 210.695 51.2093C210.855 51.2618 211 51.3391 211.123 51.4367C211.245 51.5344 211.342 51.6504 211.409 51.7782C211.475 51.906 211.509 52.043 211.509 52.1814Z" fill="#BB2B10"/>
<path d="M224.005 59.0894C223.118 56.8889 221.43 54.9505 219.159 53.5224L219.516 53.1583C221.879 54.6443 223.635 56.6613 224.558 58.9511L224.005 59.0894Z" fill="#BB2B10"/>
<path d="M217.161 52.4624C216.517 52.1773 215.845 51.9323 215.153 51.7297L215.349 51.2965C216.069 51.5134 216.767 51.7737 217.438 52.0753L217.161 52.4624Z" fill="#BB2B10"/>
<path d="M210.192 52.1813C206.725 52.1813 203.401 53.2839 200.949 55.2466C198.498 57.2093 197.121 59.8713 197.121 62.647H223.262C223.262 59.8713 221.885 57.2093 219.434 55.2466C216.983 53.2839 213.658 52.1813 210.192 52.1813Z" fill="#BB2B10"/>
<path opacity="0.3" d="M198.923 61.7116H202.301C202.418 61.7099 202.53 61.676 202.62 61.6155C202.709 61.5551 202.769 61.4718 202.79 61.3798C203.469 58.5133 205.605 56.0155 209 53.845C209.077 53.7954 209.132 53.7271 209.156 53.6504C209.181 53.5737 209.173 53.4927 209.135 53.4198C209.096 53.3469 209.029 53.286 208.944 53.2463C208.858 53.2066 208.759 53.1903 208.661 53.1998C206.093 53.4712 203.705 54.4044 201.858 55.8585C200.01 57.3126 198.804 59.2086 198.422 61.2599C198.413 61.3167 198.419 61.3743 198.44 61.429C198.461 61.4836 198.497 61.534 198.544 61.5768C198.592 61.6196 198.65 61.6538 198.715 61.677C198.78 61.7002 198.851 61.712 198.923 61.7116Z" fill="white"/>
<path d="M168.608 52.209C168.877 52.2184 169.147 52.2076 169.413 52.1767C169.449 52.1712 169.481 52.1545 169.501 52.1303C169.522 52.1061 169.529 52.0764 169.523 52.0477C169.513 52.0177 169.491 51.9913 169.459 51.9736C169.427 51.9558 169.389 51.9478 169.35 51.9509C168.749 52.0225 168.136 51.9842 167.556 51.839C166.976 51.6937 166.444 51.4452 166.001 51.1122C165.988 51.1012 165.973 51.0924 165.955 51.0864C165.938 51.0804 165.919 51.0773 165.9 51.0773C165.882 51.0773 165.863 51.0804 165.846 51.0864C165.828 51.0924 165.813 51.1012 165.8 51.1122C165.775 51.1342 165.761 51.163 165.761 51.1928C165.761 51.2227 165.775 51.2514 165.8 51.2735C166.561 51.8504 167.56 52.1833 168.608 52.209Z" fill="#263238"/>
</svg>
