<svg width="28" height="26" viewBox="0 0 28 26" fill="none" xmlns="http://www.w3.org/2000/svg">
<path d="M2.31787 13.6519C3.11926 17.4121 5.60612 20.5433 8.9449 22.2076C9.44311 22.4559 9.99386 22.5788 10.5499 22.5788H18.345C18.901 22.5788 19.4518 22.4559 19.9499 22.2076C23.2887 20.5433 25.7755 17.4121 26.577 13.6519H2.31787Z" fill="#E3AF2D"/>
<path d="M27.6533 10.108C27.5899 10.0691 26.2982 9.28531 24.8223 9.13255C24.7 7.25854 23.5464 5.55505 23.4907 5.47389C23.3205 5.22589 23.016 5.10871 22.7247 5.17954C22.6293 5.20269 20.6398 5.69857 19.3058 7.0134C18.1046 6.13782 16.6223 5.85595 16.5492 5.84253C16.1811 5.77457 15.8217 6.00035 15.7211 6.36311C15.5922 6.82793 14.6467 10.3431 14.8605 12.6476C13.0824 13.0348 11.209 12.4883 9.91707 11.1893C8.66659 9.93192 8.11676 8.12648 8.43192 6.39082C10.1582 6.07376 11.9536 6.62678 13.2041 7.88415C13.4869 8.16844 13.9455 8.16844 14.2284 7.88415C14.5111 7.5998 14.5111 7.13867 14.2284 6.85427C12.512 5.1284 9.98718 4.44786 7.6395 5.07825C7.38909 5.14544 7.19352 5.34214 7.12664 5.59387C6.78938 6.86378 6.83002 8.18499 7.20616 9.40365L4.72941 7.62581C4.40397 7.39211 3.95159 7.46799 3.71923 7.79534C3.48681 8.12269 3.56227 8.57744 3.88788 8.81109L9.617 12.9236H2.57823C1.14552 11.1718 1.05491 8.69264 2.37638 6.8315C2.6088 6.50415 2.53333 6.0494 2.20772 5.81575C1.88227 5.58205 1.4299 5.65794 1.19753 5.98528C0.34736 7.18288 -0.0741168 8.64975 0.0107036 10.1158C0.0942114 11.559 0.661813 12.9478 1.60906 14.0262C1.62989 14.05 1.65231 14.0715 1.67534 14.0918C2.11054 15.9267 2.9483 17.6753 4.10997 19.165C5.31621 20.7117 6.87688 21.9894 8.62317 22.8598C9.2098 23.1524 9.876 23.3069 10.5499 23.3069H18.3449C19.0188 23.3069 19.6851 23.1524 20.2716 22.8598C22.0179 21.9894 23.5786 20.7117 24.7848 19.165C26.0071 17.5976 26.8717 15.744 27.2851 13.8045C27.3309 13.5895 27.2776 13.3651 27.1401 13.1941C27.0026 13.023 26.7956 12.9237 26.5769 12.9237H23.2751L23.4628 12.6318C23.68 12.2941 23.5838 11.8433 23.2479 11.6249C22.912 11.4067 22.4637 11.5034 22.2465 11.841L21.5504 12.9237H19.0911L19.4295 10.7588C19.4915 10.3615 19.2215 9.98883 18.8265 9.92637C18.4312 9.86368 18.0607 10.1354 17.9986 10.5327L17.6249 12.9236H16.3558C16.0832 11.7302 16.5008 9.229 16.9358 7.44897C17.5017 7.63214 18.3152 7.97405 18.8609 8.54192C19.0103 8.69737 19.2206 8.77854 19.4353 8.76215C19.6498 8.74615 19.8461 8.63513 19.9711 8.45922C20.6286 7.53371 21.8737 6.99229 22.5672 6.74951C22.923 7.39579 23.4917 8.6337 23.3679 9.76404C23.3444 9.97899 23.4171 10.1934 23.5663 10.3491C23.7155 10.5047 23.9255 10.5859 24.1404 10.57C25.4356 10.4755 26.8666 11.3315 26.8988 11.3509C27.2399 11.56 27.6853 11.4519 27.8937 11.1089C28.1021 10.7659 27.9945 10.3177 27.6533 10.108ZM19.6282 21.5552C19.2405 21.7485 18.7968 21.8507 18.3449 21.8507H10.5499C10.098 21.8507 9.6543 21.7485 9.26651 21.5551C6.36911 20.1109 4.17067 17.47 3.25066 14.3802H25.644C24.7241 17.4699 22.5257 20.1108 19.6282 21.5552Z" fill="#DC8C2A"/>
</svg>
