<svg width="28" height="28" viewBox="0 0 28 28" fill="none" xmlns="http://www.w3.org/2000/svg">
<path d="M7.11728 9.30824C9.17566 8.01477 11.5557 7.33112 14 7.33112C16.4444 7.33112 18.8244 8.01477 20.8828 9.30824C22.2533 10.1695 23.4441 11.275 24.4014 12.562L27.0416 8.85176C24.637 4.08837 19.7003 0.821289 13.9999 0.821289C8.29951 0.821289 3.36293 4.08837 0.958374 8.85171L3.59863 12.562C4.55594 11.2751 5.74676 10.1695 7.11728 9.30824Z" fill="#E3AF2D"/>
<path d="M27.7748 8.48165C26.5078 5.97166 24.5779 3.85301 22.1937 2.35484C19.7422 0.814352 16.9088 0 14 0C11.0912 0 8.25792 0.814352 5.80627 2.35484C3.42223 3.85301 1.4922 5.97166 0.225252 8.48165C0.0878219 8.75377 0.112486 9.07955 0.289236 9.32794L13.3309 27.6549C13.4849 27.8714 13.7343 28 14 28C14.2657 28 14.515 27.8715 14.6691 27.6549L16.8104 24.6457C17.0734 24.2761 16.987 23.7634 16.6174 23.5004C16.2479 23.2373 15.7351 23.3237 15.4721 23.6934L13.9999 25.7621L4.62311 12.5852C5.45606 11.5708 6.43983 10.704 7.55431 10.0037C9.4816 8.79255 11.7104 8.15243 14 8.15243C15.4108 8.15243 16.7982 8.39634 18.1066 8.86621V10.3593C18.1066 10.813 18.4744 11.1806 18.9279 11.1806C19.3814 11.1806 19.7492 10.8129 19.7492 10.3593V9.59859C19.9852 9.72579 20.2177 9.86043 20.4457 10.0037C20.9022 10.2905 21.3364 10.6058 21.7477 10.9472V15.618C21.7477 16.1689 21.2994 16.6173 20.7485 16.6173C20.1975 16.6173 19.7492 16.169 19.7492 15.618V14.9322C19.7492 14.4786 19.3814 14.1109 18.9279 14.1109C18.4744 14.1109 18.1066 14.4786 18.1066 14.9322V18.9053C18.1066 19.4562 17.6583 19.9046 17.1073 19.9046C16.5564 19.9046 16.1081 19.4563 16.1081 18.9053V12.5619C16.1081 12.1083 15.7403 11.7406 15.2868 11.7406C14.8333 11.7406 14.4655 12.1084 14.4655 12.5619V18.9053C14.4655 20.362 15.6506 21.5471 17.1073 21.5471C18.5641 21.5471 19.7492 20.362 19.7492 18.9053V18.0631C20.0577 18.1896 20.395 18.2599 20.7485 18.2599C22.2052 18.2599 23.3904 17.0748 23.3904 15.618V15.3994L27.7109 9.32794C27.8876 9.0796 27.9123 8.75377 27.7748 8.48165ZM14 6.50978C11.4008 6.50978 8.86959 7.23696 6.68035 8.61284C5.5411 9.3287 4.52221 10.1977 3.64043 11.2043L1.92051 8.7873C4.34792 4.36756 8.93194 1.64259 14 1.64259C15.4254 1.64259 16.8125 1.85817 18.1241 2.2663C18.4156 2.35698 18.7033 2.45727 18.9869 2.56676C19.1288 2.62145 19.2695 2.67854 19.4092 2.73793C22.2029 3.9247 24.5624 6.02498 26.0795 8.7873L24.3596 11.2042C23.4779 10.1977 22.4589 9.3287 21.3197 8.61284C19.1304 7.23707 16.5993 6.50978 14 6.50978Z" fill="#DC8C2A"/>
<path d="M10.7148 16.0459C11.9849 16.0459 13.0145 15.0163 13.0145 13.7463C13.0145 12.4762 11.9849 11.4466 10.7148 11.4466C9.44476 11.4466 8.41516 12.4762 8.41516 13.7463C8.41516 15.0163 9.44476 16.0459 10.7148 16.0459Z" fill="#E3AF2D"/>
<path d="M10.7147 16.8668C8.9938 16.8668 7.59375 15.4667 7.59375 13.7459C7.59375 12.025 8.99386 10.6249 10.7147 10.6249C12.4356 10.6249 13.8357 12.025 13.8357 13.7459C13.8357 15.4667 12.4357 16.8668 10.7147 16.8668ZM10.7147 12.2675C9.89954 12.2675 9.23634 12.9307 9.23634 13.7459C9.23634 14.561 9.89954 15.2242 10.7147 15.2242C11.5299 15.2242 12.1931 14.561 12.1931 13.7459C12.1931 12.9307 11.5299 12.2675 10.7147 12.2675Z" fill="#DC8C2A"/>
</svg>
