<svg width="30" height="26" viewBox="0 0 30 26" fill="none" xmlns="http://www.w3.org/2000/svg">
<path d="M26.1838 8.99716C26.1711 8.17667 25.9939 7.36433 25.66 6.59649C25.3704 5.94882 24.9282 5.36062 24.3615 4.86948C23.7948 4.37833 23.1161 3.99503 22.3688 3.74408C21.4942 3.45955 20.5702 3.3057 19.6362 3.28908C18.4338 3.24249 18.0525 3.22949 15 3.22949C11.9475 3.22949 11.5563 3.22949 10.3625 3.28908C9.42895 3.30582 8.50544 3.45967 7.63125 3.74408C6.88382 3.99486 6.20503 4.37809 5.63829 4.86926C5.07156 5.36043 4.62936 5.94872 4.34 6.59649C4.01104 7.35389 3.8339 8.15445 3.81625 8.96358C3.7625 10.0068 3.74625 10.3372 3.74625 12.9827C3.74625 15.6282 3.74625 15.9662 3.81625 17.0019C3.835 17.8122 4.01125 18.6117 4.34 19.3712C4.62985 20.0187 5.07237 20.6068 5.6393 21.0977C6.20622 21.5887 6.88508 21.9718 7.6325 22.2225C8.50429 22.5185 9.42797 22.6833 10.3638 22.71C11.5675 22.7566 11.9488 22.7707 15.0013 22.7707C18.0538 22.7707 18.445 22.7707 19.6388 22.71C20.5727 22.6941 21.4967 22.5406 22.3713 22.2561C23.1184 22.0048 23.7969 21.6214 24.3636 21.1303C24.9302 20.6392 25.3726 20.0512 25.6625 19.4037C25.9913 18.6453 26.1675 17.8458 26.1862 17.0344C26.24 15.9922 26.2562 15.6618 26.2562 13.0152C26.2537 10.3697 26.2538 10.0339 26.1838 8.99716ZM14.9925 17.9856C11.8 17.9856 9.21375 15.7442 9.21375 12.9773C9.21375 10.2105 11.8 7.96908 14.9925 7.96908C16.5251 7.96908 17.995 8.49673 19.0787 9.43596C20.1624 10.3752 20.7713 11.6491 20.7713 12.9773C20.7713 14.3056 20.1624 15.5795 19.0787 16.5187C17.995 17.4579 16.5251 17.9856 14.9925 17.9856ZM21.0013 8.95166C20.8242 8.9518 20.649 8.92169 20.4854 8.86305C20.3218 8.80442 20.1732 8.7184 20.0481 8.60993C19.9229 8.50145 19.8236 8.37266 19.756 8.2309C19.6883 8.08915 19.6536 7.93723 19.6537 7.78383C19.6537 7.63053 19.6886 7.47874 19.7563 7.33712C19.824 7.1955 19.9232 7.06682 20.0482 6.95843C20.1733 6.85003 20.3218 6.76405 20.4852 6.70539C20.6486 6.64673 20.8238 6.61653 21.0006 6.61653C21.1775 6.61653 21.3526 6.64673 21.5161 6.70539C21.6795 6.76405 21.8279 6.85003 21.953 6.95843C22.0781 7.06682 22.1773 7.1955 22.245 7.33712C22.3127 7.47874 22.3475 7.63053 22.3475 7.78383C22.3475 8.42949 21.745 8.95166 21.0013 8.95166Z" fill="#BB2B10"/>
<path d="M14.9925 16.2306C17.0656 16.2306 18.7463 14.7741 18.7463 12.9774C18.7463 11.1807 17.0656 9.72412 14.9925 9.72412C12.9194 9.72412 11.2388 11.1807 11.2388 12.9774C11.2388 14.7741 12.9194 16.2306 14.9925 16.2306Z" fill="#BB2B10"/>
</svg>
