<svg width="246" height="233" viewBox="0 0 246 233" fill="none" xmlns="http://www.w3.org/2000/svg">
<path d="M122.934 198.428C70.5544 198.428 28.0919 196.076 28.0919 193.175C28.0919 190.273 70.5544 187.921 122.934 187.921C175.314 187.921 217.777 190.273 217.777 193.175C217.777 196.076 175.314 198.428 122.934 198.428Z" fill="#F5F5F5"/>
<path d="M176.874 193.175H178.83" stroke="#BB2B10" stroke-linecap="round" stroke-linejoin="round"/>
<path d="M182.528 193.175H232.495" stroke="#BB2B10" stroke-linecap="round" stroke-linejoin="round" stroke-dasharray="7.57 7.57"/>
<path d="M234.344 193.175H236.301" stroke="#BB2B10" stroke-linecap="round" stroke-linejoin="round"/>
<path d="M60.4415 82.0849L116.882 82.9729L116.207 121.631L59.7658 120.743L60.4415 82.0849Z" fill="#BB2B10"/>
<path opacity="0.3" d="M82.8144 82.4323L116.938 82.9691L116.262 121.628L82.1387 121.091L82.8144 82.4323Z" fill="white"/>
<path opacity="0.3" d="M77.6722 85.037L87.4994 85.2235L87.4446 87.8224L77.6174 87.636L77.6722 85.037Z" fill="white"/>
<path opacity="0.3" d="M77.3804 115.098L87.2062 115.253L87.1608 117.852L77.3349 117.697L77.3804 115.098Z" fill="white"/>
<path d="M70.8295 106.83C67.6443 106.83 65.0623 104.058 65.0623 100.639C65.0623 97.2198 67.6443 94.448 70.8295 94.448C74.0146 94.448 76.5966 97.2198 76.5966 100.639C76.5966 104.058 74.0146 106.83 70.8295 106.83Z" stroke="white" stroke-miterlimit="10"/>
<path d="M70.5898 95.3901V96.4297" stroke="white" stroke-linecap="round" stroke-linejoin="round"/>
<path d="M70.3403 104.913V105.953" stroke="white" stroke-linecap="round" stroke-linejoin="round"/>
<path d="M75.6916 100.435H74.5916" stroke="white" stroke-linecap="round" stroke-linejoin="round"/>
<path d="M66.8574 100.439H65.7575" stroke="white" stroke-linecap="round" stroke-linejoin="round"/>
<path d="M70.5947 100.435L70.5901 97.2325" stroke="white" stroke-width="0.5" stroke-linecap="round" stroke-linejoin="round"/>
<path d="M70.3794 100.644L67.9923 102.908" stroke="white" stroke-width="0.5" stroke-linecap="round" stroke-linejoin="round"/>
<path d="M70.0621 100.439C70.0621 100.54 70.0934 100.637 70.1519 100.721C70.2105 100.804 70.2937 100.869 70.391 100.907C70.4884 100.945 70.5955 100.955 70.6989 100.936C70.8023 100.916 70.8972 100.868 70.9717 100.797C71.0462 100.726 71.097 100.636 71.1175 100.538C71.1381 100.44 71.1275 100.338 71.0872 100.246C71.0469 100.153 70.9786 100.074 70.891 100.019C70.8033 99.9633 70.7003 99.9336 70.5949 99.9336C70.5248 99.933 70.4552 99.9457 70.3903 99.9709C70.3253 99.9961 70.2663 100.033 70.2167 100.08C70.1671 100.127 70.1279 100.184 70.1013 100.245C70.0748 100.307 70.0615 100.373 70.0621 100.439Z" fill="white"/>
<path opacity="0.3" d="M70.8294 108.468C66.6123 108.468 63.1937 104.963 63.1937 100.639C63.1937 96.3151 66.6123 92.8098 70.8294 92.8098C75.0465 92.8098 78.4651 96.3151 78.4651 100.639C78.4651 104.963 75.0465 108.468 70.8294 108.468Z" fill="white"/>
<path d="M134.244 168.536C133.392 169.153 116.306 167.408 120.723 138.648C120.723 138.648 112.618 140.602 111.747 140.472C111.747 140.472 99.8559 157.769 108.514 166.336C117.172 174.904 130.076 175.428 130.076 175.428L134.244 168.536Z" fill="#BB2B10"/>
<path opacity="0.3" d="M134.244 168.536C133.392 169.153 116.306 167.408 120.723 138.648C120.723 138.648 112.618 140.602 111.747 140.472C111.747 140.472 99.8559 157.769 108.514 166.336C117.172 174.904 130.076 175.428 130.076 175.428L134.244 168.536Z" fill="black"/>
<path d="M115.308 143.099C115.264 143.099 120.083 143.187 121.697 141.284C123.311 139.382 124.402 135.98 121.467 133.659C118.532 131.339 101.299 121.314 93.1838 120.526C85.0687 119.737 76.3813 124.702 76.3813 124.702L87.0058 132.156L109.884 137.409L115.308 143.099Z" fill="#263238"/>
<path d="M130.888 164.007L130.443 168.165L125.18 167.743L125.972 163.468L130.888 164.007Z" fill="#FFC3BD"/>
<path d="M131.91 167.863L124.275 167.761L123.732 171.418C123.732 171.418 130.883 171.511 133.823 171.14C136.763 170.768 136.303 169.316 136.303 169.316C136.303 169.316 132.859 169.395 131.91 167.863Z" fill="#263238"/>
<path d="M65.2737 178.389C64.1336 167.758 70.8982 158.398 80.383 157.482C89.8677 156.567 98.4809 164.442 99.621 175.073C100.761 185.704 93.9965 195.064 84.5117 195.98C75.027 196.895 66.4138 189.02 65.2737 178.389Z" fill="#263238"/>
<path d="M94.4459 117.551C94.4459 117.551 93.6535 134.801 104.229 135.293C114.805 135.785 126.168 134.685 126.168 134.685L122.836 165.682L132.752 166.262C132.752 166.262 139.869 139.966 140.989 133.358C142.109 126.749 141.136 122.076 133.784 119.143C126.432 116.209 94.4459 117.551 94.4459 117.551Z" fill="#BB2B10"/>
<path d="M153.629 172.281L140.456 135.98L122.846 117.537C122.846 117.537 138.215 117.592 145.602 121.621C152.988 125.649 153.262 130.49 154.617 136.249C155.972 142.008 161.406 169.269 161.406 169.269L153.629 172.281Z" fill="#BB2B10"/>
<path opacity="0.7" d="M94.4458 117.551C94.4458 117.551 110.813 116.859 122.817 117.551C122.817 117.551 138.186 117.606 145.572 121.635C152.959 125.663 153.262 130.49 154.617 136.249C155.972 142.008 161.406 169.269 161.406 169.269L153.629 172.281L140.456 135.98C138.24 146.041 132.752 166.243 132.752 166.243L122.836 165.682L126.172 134.704C126.172 134.704 114.814 135.803 104.234 135.312C93.6534 134.82 94.4458 117.551 94.4458 117.551Z" fill="black"/>
<path d="M121.467 89.5703L127.547 90.2711C127.547 90.2711 128.604 100.876 129.587 102.936C129.587 102.936 148.287 105.373 155.948 105.164L159.836 107.67L159.973 112.028L156.163 112.135L154.935 109.373C154.935 109.373 152.362 109.267 151.765 107.893C151.765 107.893 131.896 112.446 124.578 107.248C124.568 107.252 120.156 101.103 121.467 89.5703Z" fill="#FFC3BD"/>
<path d="M104.043 61.1724C104.043 61.1724 102.14 63.4928 102.864 65.5024C103.064 66.0755 103.416 66.59 103.887 66.9965C104.357 67.4029 104.93 67.6875 105.55 67.8228C105.55 67.8228 105.907 71.039 107.907 71.1318C109.908 71.2247 109.238 64.0451 109.238 64.0451L104.043 61.1724Z" fill="#263238"/>
<path d="M119.447 117.63L120.782 96.8985L129.068 91.6728C129.068 91.6728 126.358 82.609 121.173 81.0728C115.988 79.5367 104.679 76.0142 97.8211 77.7638C90.9631 79.5135 91.7506 87.1896 92.9295 92.8841L94.2502 93.1811C94.2502 93.1811 94.4557 115.62 94.4655 117.551L119.447 117.63Z" fill="#263238"/>
<path d="M104.537 79.0447C107.252 81.5369 112.789 83.022 114.32 81.7828C115.851 80.5437 113.919 79.4067 112.481 78.0051C111.703 77.2347 111.728 75.7914 111.909 74.6404C112.004 74.0605 112.145 73.4881 112.329 72.9279C117.412 72.6634 119.52 70.4079 119.73 66.4306C119.941 62.4533 118.043 57.8355 118.043 57.8355L114.452 54.9303C114.452 54.9303 109.561 55.6264 105.647 58.179C103.319 59.6826 104.009 62.6436 104.972 64.8294C105.381 65.7599 105.872 66.6557 106.44 67.5073C106.988 72.9511 104.537 79.0447 104.537 79.0447Z" fill="#FFC3BD"/>
<path d="M116.903 67.5259C116.903 67.5259 114.946 67.6141 114.09 66.4631" stroke="#263238" stroke-linecap="round" stroke-linejoin="round"/>
<path d="M113.788 62.8292C113.788 63.182 114.013 63.4604 114.277 63.4558C114.541 63.4511 114.731 63.1587 114.721 62.806C114.712 62.4533 114.497 62.1749 114.233 62.1795C113.969 62.1841 113.773 62.4765 113.788 62.8292Z" fill="#263238"/>
<path d="M118.249 62.9406C118.249 63.2933 118.474 63.5717 118.738 63.5671C119.002 63.5624 119.192 63.2701 119.182 62.9174C119.173 62.5646 118.958 62.2862 118.694 62.2908C118.43 62.2955 118.234 62.5925 118.249 62.9406Z" fill="#263238"/>
<path d="M116.699 65.8227L116.899 62.9778L118.331 65.6788C118.108 65.8592 117.831 65.9698 117.539 65.9955C117.247 66.0213 116.953 65.9609 116.699 65.8227Z" fill="#ED847E"/>
<path d="M114.022 60.6015C113.647 60.5037 113.247 60.5354 112.894 60.6909C112.541 60.8464 112.258 61.1157 112.095 61.4508" stroke="#263238" stroke-linecap="round" stroke-linejoin="round"/>
<path d="M119.628 61.126C119.628 61.126 118.728 60.1978 117.671 60.4345" stroke="#263238" stroke-linecap="round" stroke-linejoin="round"/>
<path d="M104.938 64.8294C110.534 65.0197 111.229 59.0004 111.229 59.0004C113.997 60.3927 118.023 57.8402 118.023 57.8402L114.433 54.9257C114.433 54.9257 109.541 55.6311 105.628 58.1743C103.285 59.6826 103.975 62.6528 104.938 64.8294Z" fill="#263238"/>
<path d="M119.823 59.6037C119.823 59.6037 122.719 57.7752 121.442 56.4572C120.166 55.1391 112.344 57.6452 106.499 60.7176C106.499 60.7176 119.887 52.22 123.526 54.9071C126.535 57.1301 119.862 60.2163 120.063 60.2117L119.823 59.6037Z" fill="#BB2B10"/>
<path d="M103.49 58.9819C103.499 59.9442 103.691 60.8971 104.058 61.7943L117.206 55.7611C116.662 55.1643 116.009 54.6645 115.279 54.2852C114.501 53.8629 113.655 53.565 112.775 53.4035C111.841 53.2342 110.886 53.2028 109.942 53.3106C105.134 53.8351 103.466 57.3436 103.49 58.9819Z" fill="#BB2B10"/>
<path d="M161.719 120.419C161.719 120.419 176.57 139.911 164.341 169.914" stroke="#263238" stroke-linecap="round" stroke-linejoin="round"/>
<path d="M142.119 130.545C142.119 130.545 142.119 130.582 142.119 130.657C142.119 130.731 142.119 130.773 142.119 130.856V130.903C142.296 132.78 142.623 134.642 143.097 136.472C143.772 139.177 144.668 141.753 145.406 143.823C148.537 152.618 148.175 162.094 148.175 162.094C149.212 160.869 151.11 159.997 153.482 159.384C162.121 157.133 176.786 158.34 176.786 158.34C179.662 148.766 178.635 133.78 175.773 125.389C172.911 116.998 164.977 118.892 164.977 118.892C164.977 118.892 156.603 119.124 155.551 119.017C153.626 118.796 151.678 118.833 149.765 119.129C143.298 120.252 141.742 125.101 142.119 130.545Z" fill="#BB2B10"/>
<path d="M77.6433 167.074C92.318 179.642 120.645 180.96 141.723 179.568L153.531 159.412L158.315 151.249L142.946 131.594L142.134 130.559C142.134 130.559 142.134 130.596 142.134 130.671C142.134 130.745 142.134 130.787 142.134 130.87V130.917C142.344 134.42 143.704 162.54 132.84 169.436L132.752 169.497C131.282 170.398 129.576 170.893 127.826 170.926C107.893 171.474 108.45 146.793 113.518 141.507L78.9298 134.912C78.9298 134.912 72.1012 151.225 77.6433 167.074Z" fill="#BB2B10"/>
<path d="M116.115 136.156C116.115 136.156 119.359 138.709 117.686 142.134C116.013 145.559 99.8853 138.908 93.536 137.697C87.1868 136.486 79.8397 135.302 76.6797 134.685C73.5198 134.068 73.7937 125.468 76.3765 124.707C78.9592 123.946 104.258 128.188 108.455 130.517C111.227 132.114 113.797 134.006 116.115 136.156Z" fill="#263238"/>
<path d="M107.995 66.955C108.304 66.6397 108.491 66.2345 108.526 65.8055C108.56 65.3765 108.441 64.949 108.186 64.5928C107.404 63.4789 105.824 61.7107 104.307 63.0334C102.184 64.8898 105.809 68.2638 107.311 67.4469C107.562 67.3144 107.793 67.1487 107.995 66.955Z" fill="#FFC3BD"/>
<path opacity="0.2" d="M119.823 59.6037C119.823 59.6037 122.719 57.7752 121.442 56.4572C120.875 55.8724 119.178 55.9931 116.883 56.615C115.408 56.9918 113.963 57.4679 112.559 58.0397C110.544 58.8705 108.401 59.9332 106.499 60.7176C106.499 60.7176 119.887 52.22 123.526 54.9071C126.534 57.1301 120.278 60.0121 120.058 60.2071L119.95 59.8311L119.823 59.6037Z" fill="black"/>
<path d="M118.45 58.8102C118.45 58.8102 121.383 59.2743 119.359 62.2723L118.45 58.8102Z" fill="#263238"/>
<path d="M115.636 56.9816C115.636 56.9816 120.063 55.5058 121.296 56.3412C122.528 57.1765 121.237 58.7684 119.828 59.5898L118.698 59.7291L118.033 57.8263L116.311 57.6267L115.636 56.9816Z" fill="#263238"/>
<path opacity="0.3" d="M109.605 54.7122L110.666 56.2019L115.279 54.2991C114.501 53.8768 113.655 53.5789 112.775 53.4174L109.605 54.7122Z" fill="white"/>
<path opacity="0.1" d="M110.632 72.5195C110.937 73.2898 111.375 74.0065 111.928 74.6404C112.024 74.0605 112.164 73.4881 112.349 72.9279C111.756 72.8886 111.175 72.7504 110.632 72.5195Z" fill="black"/>
<path d="M154.485 113.332C154.681 116.548 156.148 119.18 157.948 119.829C158.26 119.943 158.593 119.992 158.926 119.973C161.147 119.853 162.761 116.692 162.536 112.919C162.311 109.146 160.325 106.185 158.105 106.306C157.2 106.352 156.402 106.904 155.781 107.791C154.866 109.062 154.353 111.095 154.485 113.332Z" fill="#F5F5F5"/>
<path d="M154.485 113.332C154.681 116.548 156.148 119.18 157.948 119.829C160.003 119.718 161.495 116.799 161.284 113.332C161.074 109.865 159.244 107.113 157.19 107.225C156.661 107.262 156.16 107.466 155.767 107.805C154.866 109.062 154.353 111.095 154.485 113.332Z" fill="white"/>
<path d="M75.2073 158.92C78.9885 156.4 93.6192 153.926 93.6192 153.926C102.507 153.926 110.309 161.514 111.385 171.59C112.266 179.786 108.45 187.225 102.302 190.618C102.302 190.618 101.788 190.822 100.927 191.142C97.6694 192.363 89.4026 195.319 84.516 195.969" fill="#263238"/>
<path opacity="0.3" d="M65.2737 178.389C64.1336 167.758 70.8982 158.398 80.383 157.482C89.8677 156.567 98.4809 164.442 99.621 175.073C100.761 185.704 93.9965 195.064 84.5117 195.98C75.027 196.895 66.4138 189.02 65.2737 178.389Z" fill="black"/>
<path d="M141.318 177.77C140.177 167.139 146.942 157.779 156.427 156.864C165.912 155.948 174.525 163.824 175.665 174.454C176.805 185.085 170.04 194.445 160.556 195.361C151.071 196.277 142.458 188.401 141.318 177.77Z" fill="#263238"/>
<path d="M147.94 160.41L156.686 195.249C157.962 195.446 159.26 195.481 160.546 195.356H160.643C162.321 194.948 161.573 195.389 163.256 194.86C167.536 193.518 173.753 191.147 173.753 191.147C180.342 188.107 184.064 180.714 183.159 172.267C182.064 162.034 174.325 154.39 165.217 155.017C165.217 155.017 160.893 155.773 156.442 156.873C154.485 157.337 152.528 157.89 150.919 158.465C149.853 159.007 148.854 159.659 147.94 160.41Z" fill="#263238"/>
<path opacity="0.3" d="M141.317 177.748C142.295 186.914 148.835 194.029 156.696 195.231C157.972 195.427 159.269 195.463 160.555 195.338H160.653C162.444 195.154 164.185 194.662 165.789 193.885C172.398 190.706 176.58 182.983 175.665 174.444C174.526 163.821 165.931 155.955 156.451 156.855H156.427C154.502 157.039 152.634 157.58 150.929 158.447C149.863 158.99 148.864 159.644 147.95 160.396C143.269 164.257 140.544 170.736 141.317 177.748Z" fill="black"/>
<path d="M143.699 165.543C143.986 165.109 144.313 164.7 144.677 164.322C146.864 161.491 151.863 160.433 155.135 160.684C157.644 160.916 160.053 161.736 162.145 163.069C164.532 164.536 166.239 166.782 168.607 168.323C173.097 171.265 179.911 171.181 184.421 168.151C184.676 167.979 184.917 167.792 185.145 167.589C185.605 167.135 185.911 166.562 186.026 165.942C186.198 165.168 186.135 164.363 185.845 163.621C184.866 161.013 181.604 158.721 179.544 157.324C175.369 154.529 170.458 152.889 165.359 152.585C150.816 151.634 144.614 163.417 143.699 165.543Z" fill="#BB2B10"/>
<path opacity="0.3" d="M144.707 165.914C147.833 161.635 151.844 160.433 155.116 160.684C157.625 160.916 160.033 161.736 162.126 163.069C164.513 164.536 166.22 166.782 168.588 168.323C173.078 171.265 179.892 171.181 184.402 168.151C184.656 167.979 184.898 167.792 185.126 167.589C185.585 167.135 185.892 166.562 186.006 165.942C186.179 165.168 186.116 164.363 185.825 163.621C184.314 165.278 179.911 169.269 173.949 167.334C166.513 164.898 164.699 157.658 156.75 157.723C150.435 157.792 146.546 162.433 144.707 165.914Z" fill="black"/>
<g opacity="0.3">
<path opacity="0.3" d="M177.417 156.047C175.295 154.617 172.909 153.58 170.382 152.989C167.853 152.378 165.234 152.174 162.634 152.386C160.038 152.623 157.496 153.236 155.096 154.205L154.206 154.576L153.335 154.989C152.748 155.249 152.196 155.574 151.628 155.871C151.061 156.168 150.537 156.535 149.994 156.864C149.451 157.194 148.943 157.579 148.424 157.945C150.558 156.589 152.835 155.449 155.219 154.544C157.598 153.638 160.105 153.07 162.659 152.859C165.207 152.628 167.778 152.784 170.275 153.323C171.528 153.587 172.757 153.947 173.948 154.4C175.158 154.841 176.319 155.393 177.417 156.047Z" fill="black"/>
</g>
<g opacity="0.3">
<path opacity="0.3" d="M161.578 152.729C162.188 150.794 162.554 148.796 162.668 146.779C162.83 144.77 162.864 142.751 162.82 140.746C162.776 138.741 162.629 136.718 162.434 134.713L162.077 131.715C161.921 130.717 161.784 129.719 161.588 128.726L162.033 134.759L162.209 137.767C162.238 138.769 162.302 139.772 162.307 140.774C162.39 142.779 162.351 144.784 162.273 146.807C162.238 147.81 162.155 148.807 162.048 149.805C161.962 150.789 161.805 151.766 161.578 152.729Z" fill="black"/>
</g>
<path opacity="0.3" d="M132.864 169.395C143.078 163.162 143.484 147.081 143.137 136.472C143.073 134.648 142.995 132.991 142.936 131.566C142.829 130.14 142.829 128.709 142.936 127.283C143.968 119.996 149.838 119.119 149.838 119.119H149.813C143.313 120.252 141.757 125.101 142.134 130.545C142.134 130.545 142.134 130.582 142.134 130.657C142.134 130.731 142.134 130.773 142.134 130.856V130.903C142.354 134.407 143.714 162.526 132.864 169.395Z" fill="black"/>
<path opacity="0.2" d="M133.696 114.474C134.552 115.323 145.621 113.146 147.554 114.121C148.37 114.529 148.728 115.977 149.549 117.565C151.858 121.045 155.106 121.593 155.307 121.621C151.433 118.836 150.352 112.135 152.274 107.897C154.196 103.66 161.079 104.76 161.47 104.885C160.296 104.396 159.034 104.126 157.752 104.092C154.03 103.906 149.491 104.899 148.219 107.136C145.636 111.698 134.562 110.673 133.544 111.87C132.527 113.067 132.84 113.624 133.696 114.474Z" fill="black"/>
<path d="M142.364 110.422C143.036 111.6 143.305 112.949 143.132 114.279L133.754 115.281C133.275 114.755 132.921 114.137 132.716 113.469C132.511 112.801 132.459 112.099 132.566 111.411C132.566 111.411 141.855 110.524 142.364 110.422Z" fill="#263238"/>
<path d="M170.837 110.093C170.837 110.093 171.772 108.208 170.652 107.016C173.156 106.802 174.707 106.552 176.321 106.329C176.561 107.02 176.678 107.684 175.832 108.738C174.985 109.791 170.837 110.093 170.837 110.093Z" fill="#263238"/>
<path d="M176.047 121.885C177.671 124.396 179.06 128.415 179.182 134.833" stroke="#BB2B10" stroke-linecap="round" stroke-linejoin="round"/>
<path d="M170.7 117.746C171.882 118.006 172.968 118.562 173.846 119.356" stroke="#BB2B10" stroke-linecap="round" stroke-linejoin="round"/>
<path d="M97.7527 93.5524L103.926 94.2671C103.926 94.2671 105.002 105.029 106 107.122C106 107.122 124.984 109.601 132.766 109.383L136.714 111.926L136.851 116.353L132.982 116.46L131.734 113.676C131.734 113.676 129.122 113.569 128.521 112.172C128.521 112.172 108.348 116.813 100.917 111.522C100.922 111.504 96.4368 105.261 97.7527 93.5524Z" fill="#FFC3BD"/>
<path opacity="0.2" d="M148.018 176.356C148.194 182.194 152.225 186.817 157.024 186.687C157.668 186.669 158.307 186.564 158.922 186.376C162.766 185.216 165.535 180.914 165.383 175.878C165.232 171.005 162.399 166.977 158.677 165.858C157.933 165.631 157.154 165.526 156.373 165.547C151.574 165.682 147.837 170.536 148.018 176.356Z" fill="#FAFAFA"/>
<path d="M152.435 176.356C152.587 181.34 155.37 185.438 158.922 186.39C162.766 185.23 165.535 180.927 165.383 175.892C165.232 171.019 162.399 166.991 158.677 165.872C154.979 166.824 152.284 171.195 152.435 176.356Z" fill="#263238"/>
<path opacity="0.2" d="M72.6491 176.82C72.8301 182.659 76.8607 187.286 81.6545 187.151C82.2997 187.135 82.939 187.03 83.5524 186.84C87.4021 185.68 90.1707 181.382 90.0142 176.342C89.8674 171.474 87.0352 167.441 83.3127 166.322C82.5689 166.095 81.7898 165.99 81.0088 166.011C76.2102 166.146 72.473 170.991 72.6491 176.82Z" fill="#FAFAFA"/>
<path d="M77.0662 176.82C77.2228 181.8 80.0012 185.898 83.5524 186.849C87.4021 185.689 90.1707 181.392 90.0142 176.351C89.8674 171.483 87.0352 167.45 83.3127 166.332C79.6098 167.283 76.9097 171.655 77.0662 176.82Z" fill="#263238"/>
<path d="M65.0867 161.44C65.0035 167.181 74.2143 170.982 89.6276 173.377C93.7824 174.07 98.0283 174.117 102.199 173.516C109.047 172.444 112.393 169.696 112.393 169.696C112.393 169.696 110.652 149.856 93.4186 147.341C81.6788 145.633 72.8447 150.125 68.364 154.966C66.2558 157.24 65.1111 159.602 65.0867 161.44Z" fill="#BB2B10"/>
<path opacity="0.3" d="M65.0867 161.44C65.0035 167.181 74.2143 170.982 89.6276 173.377C93.7824 174.07 98.0283 174.117 102.199 173.516C101.46 168.128 98.1438 153.996 83.7284 152.529C77.1884 151.861 72.1403 153.114 68.364 154.966C66.2558 157.24 65.1111 159.602 65.0867 161.44Z" fill="black"/>
<g opacity="0.3">
<path opacity="0.3" d="M111.395 169.785C111.078 167.084 110.399 164.433 109.375 161.895C108.368 159.331 106.977 156.918 105.246 154.729C104.372 153.641 103.389 152.636 102.311 151.727C101.244 150.803 100.067 149.999 98.8042 149.332C96.2918 147.988 93.5077 147.164 90.6353 146.914C92.0428 147.138 93.4274 147.476 94.7736 147.926C95.4535 148.121 96.0943 148.422 96.7302 148.677C97.3683 148.967 97.9903 149.288 98.5939 149.638C99.2102 149.972 99.7776 150.376 100.36 150.752C100.942 151.128 101.48 151.573 101.994 152.042C103.038 152.943 103.99 153.936 104.836 155.008C106.554 157.154 107.954 159.513 108.998 162.02C109.54 163.269 110.007 164.546 110.397 165.844C110.812 167.138 111.146 168.453 111.395 169.785Z" fill="black"/>
</g>
<path d="M134.522 163.232L133.505 166.508L122.837 165.663L122.695 161.083L134.522 163.232Z" fill="#BB2B10"/>
<path d="M71.0055 140.885L47.5309 139.98" stroke="#BB2B10" stroke-linecap="round" stroke-linejoin="round"/>
<path d="M39.773 135.924L36.2853 135.79" stroke="#BB2B10" stroke-linecap="round" stroke-linejoin="round"/>
<path d="M59.7549 136.695L42.4486 136.026" stroke="#BB2B10" stroke-linecap="round" stroke-linejoin="round"/>
<path d="M47.6434 148.223L33.14 147.666" stroke="#BB2B10" stroke-linecap="round" stroke-linejoin="round"/>
<path d="M56.6096 148.571L50.2897 148.325" stroke="#BB2B10" stroke-linecap="round" stroke-linejoin="round"/>
</svg>
