<svg width="19" height="21" viewBox="0 0 19 21" fill="none" xmlns="http://www.w3.org/2000/svg">
<path d="M1.73911 8.9304C1.77584 8.47414 1.98361 8.04842 2.32103 7.73801C2.65846 7.42759 3.10078 7.25528 3.55992 7.25537H14.5706C15.0297 7.25528 15.4721 7.42759 15.8095 7.73801C16.1469 8.04842 16.3547 8.47414 16.3914 8.9304L17.1247 18.0338C17.1448 18.2844 17.1128 18.5363 17.0305 18.7739C16.9482 19.0115 16.8174 19.2294 16.6465 19.4142C16.4755 19.5989 16.2681 19.7463 16.0371 19.8472C15.8062 19.948 15.5569 20.0001 15.3048 20.0002H2.82575C2.57365 20.0001 2.3243 19.948 2.09339 19.8472C1.86248 19.7463 1.65502 19.5989 1.48406 19.4142C1.31311 19.2294 1.18237 19.0115 1.10006 18.7739C1.01776 18.5363 0.985686 18.2844 1.00585 18.0338L1.73911 8.9304V8.9304Z" stroke="black" stroke-width="2" stroke-linecap="round" stroke-linejoin="round"/>
<path d="M12.7178 9.98631V5.43459C12.7178 4.46884 12.3329 3.54264 11.6479 2.85975C10.9629 2.17686 10.0339 1.79321 9.06518 1.79321C8.09645 1.79321 7.1674 2.17686 6.48241 2.85975C5.79742 3.54264 5.4126 4.46884 5.4126 5.43459V9.98631" stroke="black" stroke-width="2" stroke-linecap="round" stroke-linejoin="round"/>
</svg>
