<svg width="19" height="22" viewBox="0 0 19 22" fill="none" xmlns="http://www.w3.org/2000/svg">
<path d="M1.74196 9.02001C1.77883 8.56058 1.9874 8.1319 2.32613 7.81933C2.66486 7.50676 3.10889 7.33325 3.56979 7.33334H14.623C15.0839 7.33325 15.5279 7.50676 15.8666 7.81933C16.2054 8.1319 16.4139 8.56058 16.4508 9.02001L17.1869 18.1867C17.2071 18.4389 17.1749 18.6927 17.0923 18.9319C17.0097 19.1711 16.8784 19.3906 16.7068 19.5766C16.5352 19.7626 16.3269 19.911 16.0951 20.0126C15.8633 20.1141 15.613 20.1666 15.36 20.1667H2.83279C2.57972 20.1666 2.32941 20.1141 2.09761 20.0126C1.86581 19.911 1.65754 19.7626 1.48593 19.5766C1.31432 19.3906 1.18307 19.1711 1.10045 18.9319C1.01783 18.6927 0.985631 18.4389 1.00588 18.1867L1.74196 9.02001V9.02001Z" stroke="black" stroke-width="2" stroke-linecap="round" stroke-linejoin="round"/>
<path d="M12.7631 10.0833V5.50001C12.7631 4.52755 12.3767 3.59492 11.6891 2.90729C11.0015 2.21965 10.0688 1.83334 9.09639 1.83334C8.12392 1.83334 7.19129 2.21965 6.50366 2.90729C5.81603 3.59492 5.42972 4.52755 5.42972 5.50001V10.0833" stroke="black" stroke-width="2" stroke-linecap="round" stroke-linejoin="round"/>
</svg>
