<svg width="28" height="28" viewBox="0 0 28 28" fill="none" xmlns="http://www.w3.org/2000/svg">
<g clip-path="url(#clip0_73_187)">
<path d="M14 8.85055C13.574 8.85055 13.2286 8.5052 13.2286 8.07919V6.3058C13.2286 5.87979 13.574 5.53444 14 5.53444C14.426 5.53444 14.7714 5.87979 14.7714 6.3058V8.07919C14.7714 8.5052 14.426 8.85055 14 8.85055Z" fill="#DC8C2A"/>
<path d="M18.898 8.53438C18.7005 8.53438 18.5032 8.45907 18.3526 8.30847L16.8258 6.7816C16.5245 6.48039 16.5245 5.99198 16.8258 5.69076C17.127 5.38965 17.6153 5.38954 17.9166 5.69076L19.4434 7.21762C19.7446 7.51884 19.7446 8.00725 19.4434 8.30847C19.2928 8.45907 19.0953 8.53438 18.898 8.53438Z" fill="#DC8C2A"/>
<path d="M9.10189 8.5343C8.90453 8.5343 8.70711 8.459 8.5565 8.30839C8.25528 8.00717 8.25523 7.51876 8.5565 7.21755L10.0833 5.69069C10.3845 5.38947 10.8729 5.38941 11.1742 5.69069C11.4754 5.99196 11.4754 6.48031 11.1742 6.78153L9.64734 8.30839C9.49673 8.459 9.29931 8.5343 9.10189 8.5343Z" fill="#DC8C2A"/>
<path d="M26.4339 17.0313H1.56602C1.1271 17.0313 0.771362 16.6755 0.771362 16.2366V14.478C0.771362 14.0391 1.1271 13.6834 1.56602 13.6834H26.4338C26.8727 13.6834 27.2285 14.0391 27.2285 14.478V16.2366C27.2285 16.6755 26.8727 17.0313 26.4339 17.0313Z" fill="#E3AF2D"/>
<path d="M22.8729 17.0312L17.2142 22.4327L11.5557 17.0312H22.8729Z" fill="#E3AF2D"/>
<path d="M27.0081 13.0226C27.0152 12.691 27.0125 12.3577 26.9813 12.0785C26.7199 9.37851 25.4007 6.88046 23.2661 5.04412C21.1293 3.20587 18.3562 2.19345 15.4577 2.19345H12.3771C6.80903 2.19345 2.02561 5.92377 1.00318 11.0634C0.920055 11.4812 1.19141 11.8872 1.60917 11.9704C2.02692 12.0538 2.43314 11.7822 2.51621 11.3644C3.39552 6.94434 7.54266 3.73623 12.3771 3.73623H15.4577C20.6863 3.73623 24.9805 7.38883 25.4463 12.2326C25.4467 12.237 25.4472 12.2413 25.4476 12.2457C25.4683 12.4274 25.471 12.6751 25.4674 12.9121H1.56596C0.702456 12.9121 0 13.6145 0 14.478V16.2366C0 16.8566 0.363122 17.3921 0.887024 17.6456V20.437C0.887024 23.3977 3.29577 25.8065 6.25653 25.8065H21.7433C24.704 25.8065 27.1128 23.3978 27.1128 20.437C27.1128 20.011 26.7674 19.6656 26.3414 19.6656C25.9154 19.6656 25.57 20.011 25.57 20.437C25.57 22.5471 23.8534 24.2638 21.7433 24.2638H6.25653C4.14643 24.2638 2.42975 22.5471 2.42975 20.437V17.8026H4.81793L8.18507 21.0167C8.33409 21.159 8.52582 21.2302 8.71767 21.2302C8.9094 21.2302 9.10124 21.1591 9.25026 21.0167L10.6063 19.7224C10.9144 19.4283 10.9258 18.9401 10.6317 18.6319C10.3376 18.3237 9.84931 18.3123 9.54114 18.6065L8.71772 19.3924L7.05217 17.8026H11.2466L16.6817 22.9907C16.8307 23.1329 17.0224 23.2041 17.2143 23.2041C17.4061 23.2041 17.5979 23.133 17.7469 22.9907L23.182 17.8026H26.434C27.2974 17.8026 27.9999 17.1002 27.9999 16.2367V14.4781C27.9998 13.8174 27.588 13.2522 27.0081 13.0226ZM17.2142 21.3664L13.4807 17.8027H20.9477L17.2142 21.3664ZM26.4571 16.2367C26.4571 16.2496 26.4467 16.2599 26.4338 16.2599H22.8728H11.5556H1.56596C1.55306 16.2599 1.54267 16.2494 1.54267 16.2367V14.4781C1.54267 14.4652 1.55306 14.4548 1.56596 14.4548H26.4338C26.4467 14.4548 26.4571 14.4653 26.4571 14.4781L26.4571 16.2367Z" fill="#DC8C2A"/>
</g>
<defs>
<clipPath id="clip0_73_187">
<rect width="28" height="28" fill="white"/>
</clipPath>
</defs>
</svg>
